<?xml version="1.0" encoding="utf-8"?>
<!-- Generator: Adobe Illustrator 26.0.0, SVG Export Plug-In . SVG Version: 6.00 Build 0)  -->
<svg version="1.1" id="Layer_1" xmlns="http://www.w3.org/2000/svg" xmlns:xlink="http://www.w3.org/1999/xlink" x="0px" y="0px"
	 viewBox="0 0 32 32" style="enable-background:new 0 0 32 32;" xml:space="preserve">
<style type="text/css">
	.st0{fill:#FFFFFF;}
	.st1{fill:#929497;}
	.st2{fill:#EC1C24;}
</style>
<rect class="st0" width="32" height="32"/>
<g>
	<path class="st1" d="M9.4,28.7c0.3-0.1,0.5-0.2,0.8-0.4c1.1-0.6,2.1-1.3,3-2.2c1-1,1.7-2.2,2.2-3.5c0.2-0.8,0.4-1.5,0.5-2.3
		c0.1-0.6,0.1-1.2,0.1-1.9c0-0.3,0-0.6,0-0.9c0-3.5,0-7,0-10.5c0-0.6-0.1-1.2-0.2-1.8c-0.2-0.8-0.7-1.3-1.4-1.6
		c-0.2-0.1-0.4-0.1-0.6-0.2c-0.1,0-0.1-0.1-0.1-0.1c0-0.1,0-0.2,0-0.3c0.1,0,0.2,0,0.3,0c0.1,0.1,0.2,0,0.4,0c0.5,0,1,0.1,1.5,0.1
		c0.5,0,1,0,1.4,0.1c0.1,0,0.2,0,0.1,0.2c0,0,0,0.1,0,0.1c0,4.6,0,9.3,0,13.9c0,1.1-0.1,2.3-0.2,3.4c-0.1,0.9-0.3,1.7-0.6,2.5
		c-0.4,1.1-1,2-1.8,2.9c-0.9,1-2,1.7-3.3,2.2c-0.6,0.2-1.3,0.4-2,0.5c0,0-0.1,0-0.1,0C9.4,28.9,9.4,28.8,9.4,28.7z"/>
	<path class="st2" d="M22.6,3C22.6,3,22.6,3,22.6,3c0,0.1,0,0.3,0,0.3c-0.1,0.1-0.2,0-0.3,0.1c-0.5,0.1-1,0.3-1.4,0.7
		c-0.3,0.3-0.5,0.8-0.6,1.2c-0.1,0.5-0.1,0.9-0.1,1.4c0,3.5,0,7.1,0,10.6c0,0.9,0,1.7,0.2,2.6c0.1,0.7,0.4,1.4,0.9,2
		c-0.1,0-0.3,0-0.4,0c-0.7,0-1.4,0.1-1.9,0.6c-0.3,0.2-0.6,0.5-0.9,0.8c-0.2,0.2-0.3,0.3-0.5,0.5c0.1-0.3,0.3-0.6,0.4-0.9
		c0.3-0.8,0.4-1.5,0.5-2.3c0.1-1.2,0.1-2.3,0.1-3.5c0-4.5,0-9.1,0-13.6c0-0.2,0-0.2,0.2-0.2c1,0,2-0.1,3.1-0.2c0.1,0,0.2,0,0.3,0
		C22.4,3,22.5,3,22.6,3z"/>
</g>
</svg>
