<svg xmlns="http://www.w3.org/2000/svg" width="405.184" height="532.357" viewBox="0 0 405.184 532.357">
  <g id="Admiralty_" data-name="Admiralty " transform="translate(-636.82 854.069)">
    <path id="Path_65737" data-name="Path 65737" d="M733.8-225.516,701.719-324c2.187-.612,4.1-1.256,6.053-1.676q44.455-9.527,88.922-19.006c8.213-1.756,16.534-3.136,24.6-5.414,10.371-2.928,20.447-2.674,30.942-.422,40.822,8.758,81.737,17.087,122.615,25.586.68.142,1.332.415,2.381.749l-32.089,98.572.765.892c2.72-1.365,5.625-2.459,8.117-4.159a116.734,116.734,0,0,0,10.035-7.91c12.342-10.577,39.137-11.464,52.847.536a45.718,45.718,0,0,0,7.194,5.6,75.439,75.439,0,0,0,12.09,5.692c4.275,1.506,6.449,3.876,5.635,7.521-.784,3.509-3.925,5.067-8.378,4.253-6.651-1.214-12.314-4.437-17.562-8.521-2.4-1.869-4.719-3.852-7.164-5.663a28.97,28.97,0,0,0-34.421-.066c-2.451,1.8-4.826,3.714-7.162,5.664-13.557,11.313-38.346,15.71-56.276-.891-6.642-6.15-13.964-10.491-23.523-9.818a26.223,26.223,0,0,0-14.552,5.208c-3.576,2.736-6.969,5.723-10.627,8.342a39.183,39.183,0,0,1-45.21.222c-3.977-2.8-7.566-6.145-11.537-8.951a26.879,26.879,0,0,0-31.758.418c-3.131,2.315-6.128,4.814-9.144,7.281-14.935,12.22-35.885,9.132-47.385,1.888-4.31-2.715-8.208-6.083-12.3-9.144a28.726,28.726,0,0,0-33.786-.744c-3.8,2.62-7.092,6.091-11.1,8.283a90.345,90.345,0,0,1-15.679,6.539,5.616,5.616,0,0,1-7.277-4.3c-.757-3.4,1.15-6.5,4.98-7.21,6.242-1.161,11.381-4.3,15.933-8.437,10.282-9.339,22.216-12.973,36.012-11.624a40.005,40.005,0,0,1,21.43,8.364c3.447,2.7,6.771,5.586,10.377,8.057,2.207,1.514,4.844,2.4,7.288,3.57Z" transform="translate(0 -135.039)" fill="#b68c5a"/>
    <path id="Path_65738" data-name="Path 65738" d="M725.959-467.3c-.361-4.334-.838-8.305-.895-12.281-.011-.766,1.5-1.979,2.516-2.267,7.781-2.209,7.794-2.154,7.793-10.361,0-10.464,0-20.926,0-31.792,1.54-.082,2.827-.2,4.114-.211,8.158-.09,16.323-.369,24.472-.137,3.7.105,4.088-1.454,4.078-4.505-.092-25.946.272-51.9-.2-77.837-.215-11.715,6.371-18.254,17.83-17.68,10.086.505,20.216.1,30.327.1h4.175c2.238-10.6,2.238-10.6,10.523-11.414.219-5.219,3.436-7.58,8.949-7.638-.594-11.464,8.145-8.461,15.01-9.3,0-4.5.042-8.845-.05-13.185-.012-.595-.911-1.134-1.036-1.77-.334-1.7-1.288-4.222-.533-5,2.434-2.51,1.851-5.352,1.887-8.157q.659-50.605,1.177-101.212c.016-1.81-1.375-3.6-1.629-5.458s-.607-4.312.319-5.64c2.061-2.953,2.463-8.378.055-11.116-.72-.819-1.724-1.616-1.973-2.584-1.053-4.083-4.331-4.836-7.713-5.5a33.657,33.657,0,0,0-22.394,2.9c-6.066,3.1-11.881,6.756-18.13,9.408-6.115,2.6-12.639,4.233-19.334,6.4.341.879.739,2.09,1.268,3.242,7.886,17.146,15.75,34.3,23.767,51.388a9.244,9.244,0,0,0,3.666,3.378c1.747,1.058,2.275,5.863.758,7.825a7.885,7.885,0,0,0-1.862,3.53c-1.546,14.084-9.155,23.854-21.825,27.779-13.45,4.167-27.8.115-36.4-10.391-3.813-4.657-5.564-10.165-6.4-16.076a13.276,13.276,0,0,0-2.134-5.027c-1.536-2.4-.521-6.61,1.984-7.767a4.28,4.28,0,0,0,1.958-1.9q12.676-27.334,25.228-54.728a4.376,4.376,0,0,0,.2-1.267c-4.851-1.122-9.568-2.174-14.264-3.315-2.309-.561-4.329-1.693-3.57-4.506.784-2.9,3.235-2.618,5.411-2,16.312,4.638,31.023.384,45.037-7.944,4.812-2.86,9.461-6.1,14.53-8.4,9.188-4.168,18.831-4.426,28.618-2.025,1.556.382,3.345-.183,5.958-.382-4.477-4.336-4.186-5.287-1.2-9.193,1.7-2.218,1.271-5.132-.515-7.751-3.573-5.244-1.177-12.569,4.538-14.478a9.182,9.182,0,0,1,10.232,2.836,9.709,9.709,0,0,1,1.015,10.942c-2.694,4.709-2.624,5.635.721,9.519,1.518,1.763.52,5.1-2.289,7.644,1.478.39,3.128,1.418,4.408,1.074,14.557-3.913,27.561-.794,39.863,7.589,9.212,6.276,19.213,11.325,30.588,12.06,5.507.355,11.1-.625,16.655-1.066,1.2-.1,2.5-.9,3.549-.616,1.432.382,3.567,1.323,3.755,2.331a4.522,4.522,0,0,1-2.225,3.842c-4.14,1.355-8.473,2.125-12.74,3.084-.927.208-1.884.28-3.255.475,1.139,2.547,2.146,4.855,3.2,7.142q11.058,24.063,22.157,48.107a5.946,5.946,0,0,0,2.077,2.79c3.5,1.832,4.181,5.442,1.671,8.471a8.407,8.407,0,0,0-1.413,4.239c-1.62,13.908-10.481,24.07-23.848,27.211-14.347,3.371-28.813-1.837-35.865-13.373-2.049-3.352-3.12-7.347-4.347-11.142-.887-2.739.063-5.96-2.846-8.226-.805-.627-.64-3.11-.2-4.52.322-1.038,1.83-1.691,2.767-2.561a6.651,6.651,0,0,0,1.646-1.813c8.636-18.664,17.227-37.349,26.032-56.477-2.045-.45-3.762-.821-5.477-1.2-10.463-2.337-20.022-6.821-29.1-12.385-9.164-5.616-18.857-6.929-29.074-3.651-1.293.414-2.356,1.774-3.333,2.867-.709.794-.873,2.186-1.674,2.769-3.459,2.518-3.219,6.129-2.711,9.553.333,2.242,2.375,4.311,2.434,6.49.056,2.109-2.112,4.247-2.15,6.392-.171,9.5.057,19,.172,28.5.3,25.089.583,50.179,1.017,75.267.036,2.092,1.27,4.141,1.744,6.256.308,1.374.888,3.291.251,4.174-3.745,5.191-.614,10.766-1.931,16.186,4,.348,7.436.3,10.7,1.018,4.027.886,4.213,4.533,4.471,8.114,4.511.737,8.873,1.8,8.686,8.117,7.918-.615,11.5,2.967,10.055,10.719.943.245,1.424.531,1.837.452,6.393-1.21,10.541,2.039,14.734,6.419,10.949,11.434,22.258,22.526,33.542,33.635a8.9,8.9,0,0,1,2.865,7.043c-.127,16.2.026,32.4-.141,48.6-.035,3.391.971,4.352,4.326,4.271,9.224-.222,18.457-.077,28.249-.077v4.839c0,10.719.095,21.441-.068,32.158-.042,2.832.731,4.266,3.633,4.629,2.273.285,4.5.978,7.132,1.579-.333,4.586-.653,9.009-1.019,14.038-6.457-1.2-12.523-2.22-18.542-3.47-38.38-7.976-76.736-16.07-115.144-23.906a30.066,30.066,0,0,0-11.9.018C814.8-486.078,774.71-477.342,734.6-468.707,731.892-468.123,729.123-467.81,725.959-467.3ZM913.1-613.971c-1.752-.1-2.83-.224-3.908-.224q-62.66-.017-125.319-.007c-4.632,0-5.8,1.164-5.8,5.9-.03,26.671.022,53.343-.089,80.014-.013,3.068.948,3.9,3.954,3.892q81.11-.12,162.221,0c3.094.005,4.227-.713,4.192-4.04-.17-15.831-.07-31.664-.086-47.5,0-1.159-.159-2.318-.259-3.68-1.486,0-2.57,0-3.653,0-8.525-.011-17.05.028-25.574-.056-3.975-.039-5.469-1.6-5.659-5.545-.064-1.337-.018-2.679-.018-4.019C913.1-597.368,913.1-605.5,913.1-613.971ZM777.572-782.424l-.752-.177-21.625,46.994c6.872,0,12.927-.128,18.971.057,2.834.087,3.775-.755,3.744-3.677-.147-13.623-.072-27.249-.094-40.874A21.585,21.585,0,0,0,777.572-782.424Zm165.246.083-.848-.11L920.435-735.6c6.914,0,13.074-.129,19.224.059,2.8.085,3.487-.933,3.464-3.58-.119-13.5-.061-26.992-.083-40.488C943.038-780.521,942.9-781.431,942.818-782.341Zm6.67-.2-1.031.262q0,5.267,0,10.532c.007,10.938-.023,21.877.088,32.815.011,1.091.857,3.1,1.363,3.12,6.824.209,13.656.14,21.156.14ZM805.832-735.624l-21.68-47.108c-.523.574-.8.734-.8.895-.043,14.7-.1,29.392.005,44.086a3.018,3.018,0,0,0,2.132,2.033C792.015-735.554,798.54-735.624,805.832-735.624Z" transform="translate(-23.746)" fill="#b68c5a"/>
    <path id="Path_65739" data-name="Path 65739" d="M688.385-170.577c9.168-.108,17.941,3.312,25.661,9.644,2.354,1.93,4.693,3.887,7.153,5.675a28.892,28.892,0,0,0,32.616.678c2.929-1.955,5.623-4.266,8.4-6.449,16.479-12.976,36.73-12.954,53.126.071,2.193,1.742,4.331,3.562,6.59,5.213a28.849,28.849,0,0,0,35.3-.219c3.117-2.335,6.046-4.928,9.216-7.185a40.674,40.674,0,0,1,46.934-.226c3.685,2.582,7.075,5.583,10.741,8.194a28.691,28.691,0,0,0,32.9.3c2.6-1.788,5.042-3.826,7.511-5.806,16.744-13.426,37.239-13.464,53.954.064,5.811,4.7,11.568,9.245,19.26,10.613,3.18.565,4.748,3.7,4.142,6.745a5.758,5.758,0,0,1-6.431,4.7A33.709,33.709,0,0,1,1019-145.078c-3.364-2.407-6.534-5.083-9.831-7.587a28.817,28.817,0,0,0-34.708-.494c-2.967,2.125-5.734,4.526-8.644,6.733a41.035,41.035,0,0,1-49.622.338c-3.231-2.387-6.267-5.042-9.545-7.359a28.638,28.638,0,0,0-33.481.253c-3.538,2.582-6.857,5.474-10.453,7.968a40.661,40.661,0,0,1-47.815-.814c-2.93-2.18-5.715-4.554-8.636-6.748a28.844,28.844,0,0,0-34.7-.254c-2.456,1.8-4.779,3.774-7.186,5.64-16.4,12.713-36.109,12.761-52.559.12-1.93-1.484-3.787-3.065-5.706-4.564-11.792-9.218-25.889-9.193-37.6.094-6.588,5.224-12.987,10.755-21.557,12.566a19.924,19.924,0,0,1-3.946.691c-3.2.011-5.391-1.617-6.01-4.77s.625-6.028,3.749-6.583c8.629-1.533,14.852-6.961,21.331-12.112C669.515-167.866,678.027-170.683,688.385-170.577Z" transform="translate(-0.009 -183.878)" fill="#b68c5a"/>
    <path id="Path_65740" data-name="Path 65740" d="M821.862-418.537v-7.577h4.126q61.881,0,123.762,0c7.085,0,7.085.006,6.32,7.576Z" transform="translate(-49.795 -115.162)" fill="#b68c5a"/>
    <path id="Path_65741" data-name="Path 65741" d="M955.943-445.071H827.889c-7.107,0-7.215-.137-5.932-7.754H955.943Z" transform="translate(-49.651 -107.974)" fill="#b68c5a"/>
    <path id="Path_65742" data-name="Path 65742" d="M906.5-480.038v7.635c-1.2.075-2.362.209-3.52.21-25.818.012-51.635-.054-77.452.087-3.343.018-4.109-1.093-4.068-4.184.039-2.9.713-4.021,3.885-4.007,25.938.123,51.878.068,77.817.077C904.119-480.22,905.08-480.118,906.5-480.038Z" transform="translate(-49.685 -100.582)" fill="#b68c5a"/>
  </g>
</svg>
