<svg xmlns="http://www.w3.org/2000/svg" width="492" height="492" viewBox="0 0 492 492">
  <g id="Banking-ic" transform="translate(2006 -764)">
    <path id="Path_65712" data-name="Path 65712" d="M-1514,1246.005V1256q-246,0-492,0v-9.993c4.905-9.126,14.036-4.124,21.326-6.219.088-1.52.241-2.989.246-4.459.026-7.166,0-14.333.016-21.5.021-9.285,1.908-11.212,11.014-11.4,1.428-.03,2.852-.24,4.646-.4,0-7.5-.107-14.641.032-21.779.119-6.059,2.941-8.812,8.952-9.04,2.607-.1,5.221-.016,8.366-.016,0-4.255-.141-7.9.034-11.526.245-5.1,3.205-8.053,7.7-8,4.38.054,7.388,3.207,7.577,8.2.138,3.613.027,7.236.027,10.96h20.628V997.911h-20.618v6.238q0,59.248,0,118.5c0,7.044-2.595,10.595-7.681,10.618-5.159.024-7.634-3.37-7.689-10.556-.012-1.5,0-3,0-4.5q0-57.249-.013-114.5c0-1.917-.185-3.833-.292-5.915-2.038-.094-3.514-.206-4.991-.222-10.092-.111-12.017-2.024-12.026-12.017,0-6.272,0-12.545,0-19.328-2.969,0-5.273.1-7.566-.019-5.076-.254-7.89-2.7-7.974-7.689-.193-11.5-.134-23-.027-34.5.045-4.76,2.882-7.243,7.462-7.829,1.46-.187,2.945-.175,4.957-.283,0-6.931.159-13.729-.053-20.515-.151-4.857,1.662-8.056,5.926-10.563q58.343-34.3,116.535-68.853,43.781-25.939,87.5-51.982h4c.087.142.14.342.266.417Q-1656.088,824.5-1554.4,884.5c4.558,2.686,6.608,6.063,6.38,11.348-.286,6.616-.069,13.253-.069,20.041,2.132.134,3.788.1,5.4.365,4.071.67,6.893,2.913,6.949,7.221.155,11.826.191,23.657,0,35.482-.072,4.47-2.866,6.966-7.37,7.21-2.581.14-5.177.025-8.128.025,0,7.828.073,14.812-.021,21.793-.091,6.708-2.726,9.324-9.438,9.557-2.444.085-4.894.014-7.855.014v6.089q0,19.494,0,38.988c0,1.167.031,2.335-.016,3.5-.231,5.722-3.207,9.042-7.922,8.871-4.488-.164-7.388-3.481-7.415-8.9-.072-14.329-.026-28.659-.027-42.988,0-1.754,0-3.507,0-5.24h-20.713v172.891h20.713V1164.9q0-42.487.011-84.976c.006-6.113,2.861-9.716,7.583-9.8,4.706-.088,7.631,3.506,7.778,9.581.033,1.332.009,2.666.009,4q0,40.737.012,81.476c0,1.908.175,3.816.282,6.009,1.914,0,3.231-.008,4.548,0,10.646.08,12.469,1.918,12.473,12.58q0,9.171,0,18.344c1.509.152,2.329.284,3.152.31,11.307.354,12.5,1.58,12.5,12.92,0,8.131,0,16.262,0,25,3.662,0,6.8.2,9.908-.046C-1520.57,1239.878-1516.587,1241.431-1514,1246.005Zm-368.437-44.079a16.761,16.761,0,0,0,2.467.456c23.995.03,47.991.094,71.985-.07a6.947,6.947,0,0,0,4.688-2.781c3.891-5.4,7.57-10.964,11.068-16.629,3.777-6.115,9.1-9.005,16.231-8.785,2.6.081,5.21.013,7.914.013V1018.594h-54.786c.826,2.1,1.431,3.8,2.15,5.45,7.92,18.143,15.9,36.261,23.738,54.439a16.145,16.145,0,0,1,1.675,7.14c-1.2,16.558-9.194,28.842-24.62,35.2-15.23,6.275-29.476,3.448-41.815-7.467s-15.373-25.512-8.823-40.453c1.737-3.961,3.509-7.906,5.237-11.87q9.246-21.2,18.473-42.407l-1.72.513c-1.578-2.962-4.074-5.795-4.516-8.918-.642-4.541,3.286-7.233,9.24-7.24q35.242-.042,70.486-.013h5.131c1.6-6.7-2.6-16.487,7.876-16.776,11.352-.313,6.911,10.119,8.617,16.776h43.869c10.664,0,21.329.053,31.993-.024,4.257-.03,7.688,1.223,8.875,5.623,1.171,4.34-.713,7.428-4.766,9.253a7.722,7.722,0,0,0-1.15.776,5.478,5.478,0,0,0,.214,1.069c8.46,19.361,16.969,38.7,25.351,58.1,1.031,2.386,2.034,5.081,1.961,7.6-.581,20.041-15.759,36.135-35.928,38.418-18.8,2.128-37.043-10.67-42.1-29.574-1.627-6.079-1.659-11.805,1.159-17.9,8.031-17.36,15.458-35,23.1-52.539.706-1.62,1.271-3.3,1.981-5.164h-54.736V1174.13c2.436,0,4.576.114,6.7-.021,7.913-.5,13.8,2.565,17.909,9.434,3.077,5.139,6.745,9.923,9.814,15.065,1.76,2.949,3.88,3.926,7.269,3.9,22.494-.14,44.99-.067,67.486-.086,1.6,0,3.193-.192,5.194-.321,0-7.616-.114-14.757.035-21.893.127-6.133,2.858-8.779,8.935-9,2.606-.1,5.218-.016,7.9-.016V997.8c-1.9-.09-3.382-.205-4.862-.222-10.147-.116-12-1.954-12.016-11.976-.009-6.275,0-12.549,0-18.99h-244.881c0,7.152.051,13.959-.014,20.765-.072,7.649-2.542,10.055-10.29,10.185-2.133.036-4.266.006-6.677.006v173.622c2.151,0,3.964-.007,5.776,0,8.937.041,11.172,2.286,11.2,11.308C-1882.419,1188.942-1882.437,1195.388-1882.437,1201.926ZM-1956.452,915.7h392.931c0-4.081-.358-7.781.084-11.382.654-5.33-1.389-8.231-6.068-10.982q-93.175-54.777-186.039-110.079c-3.455-2.056-5.729-1.7-8.9.19q-49.545,29.493-99.232,58.75-44.474,26.3-88.89,52.7c-1.621.967-3.564,2.913-3.711,4.552C-1956.749,904.729-1956.452,910.074-1956.452,915.7Zm-12.416,324.288h417.662V1218.3h-417.662Zm-.008-289.38H-1551.3V932.066h-417.579Zm154.153,125.514-20.229-46.268c-7.038,16.107-13.519,30.937-20.218,46.268Zm129.662-46.3c-7.069,16.206-13.544,31.052-20.185,46.276h40.419Zm-213.22-47.977V966.587h-54.65v15.258Zm331.214-15.172h-54.671V981.79h54.671Zm-331.057,220.406h-54.735v15.02h54.735Zm276.33-.051v15.115h54.7v-15.115Zm-235.726-94.907c2.807,9.677,12.161,16.412,22.555,16.421,10.424.01,19.755-6.706,22.547-16.421Zm149.726-.094c3.678,10.574,13.425,17.114,23.938,16.464,10.342-.64,19.255-7.493,21.253-16.464Zm-78.479,109.961h52.667c-2.653-3.929-4.706-7.33-7.163-10.409a6.012,6.012,0,0,0-4.119-1.92c-10.139-.159-20.282-.144-30.422-.008a5.371,5.371,0,0,0-3.758,1.683C-1781.551,1194.576-1783.681,1198.088-1786.273,1201.988Z" fill="#b68c5a"/>
    <path id="Path_65713" data-name="Path 65713" d="M-1736.861,839.79c.02,4.788-2.552,7.942-6.779,8.313-4.478.393-7.565-2.178-8.351-7.3-.611-3.981-2.241-7.562-6.443-7.648a11.447,11.447,0,0,0-8.044,3.443c-3.6,4.267-.6,10.567,5.142,11.8,2.267.486,4.665.384,6.92.909a23.359,23.359,0,0,1,17.364,18.65c1.471,9.732-2.738,19.175-11.125,23.8-2.78,1.533-4.128,2.988-4.261,6.344-.172,4.311-2.859,7.017-7.455,7.143-4.284.117-7.468-2.646-7.666-7.469-.131-3.177-1.523-4.5-4.041-5.965-7.273-4.219-11.3-10.662-11.542-19.178-.129-4.652,2.719-7.913,6.886-8.307,4.036-.382,7.378,2.461,8.245,7.013,1.31,6.876,5.128,9.744,10.464,7.87,3.783-1.328,5.748-4.031,5.381-7.987-.363-3.917-2.784-6.328-6.638-7.1-2.111-.422-4.318-.393-6.41-.876a23.016,23.016,0,0,1-17.749-18.782c-1.406-9.8,2.768-18.825,11.332-23.688,2.52-1.431,3.942-2.739,4.037-5.95.137-4.6,3.7-7.768,7.741-7.473,4.43.324,7.208,2.954,7.393,7.329.131,3.121,1.4,4.552,4.007,5.975A21.96,21.96,0,0,1-1736.861,839.79Z" fill="#b68c5a"/>
    <path id="Path_65714" data-name="Path 65714" d="M-1808.138,861.838a33.467,33.467,0,0,1-4.48-.032c-4.166-.568-7.232-3.9-6.96-7.772.29-4.128,2.5-6.907,6.773-7.322a53.522,53.522,0,0,1,9.447-.106c4.743.387,7.505,3.455,7.42,7.731-.083,4.2-3.058,7.154-7.715,7.54-1.485.123-2.989.019-4.485.019Z" fill="#b68c5a"/>
    <path id="Path_65715" data-name="Path 65715" d="M-1712.748,862.035a29.987,29.987,0,0,1-5.434-.466c-3.785-1.011-5.988-3.553-5.846-7.606.14-4.009,2.319-6.649,6.281-7.158a48.7,48.7,0,0,1,9.933-.176c4.6.359,7.588,3.7,7.45,7.778-.137,4.049-3.333,7.119-7.89,7.474-1.486.116-2.99.018-4.485.018Z" fill="#b68c5a"/>
  </g>
</svg>
