<svg xmlns="http://www.w3.org/2000/svg" width="340" height="470.216" viewBox="0 0 340 470.216">
  <g id="Constitutional_Law_-ic" data-name="Constitutional Law -ic" transform="translate(2543 -156.891)">
    <path id="Path_65687" data-name="Path 65687" d="M-2204.84,182.36c-4.85-15.04-18.33-25.35-34.09-25.37q-124.44-.15-248.88.02c-27.1.07-49.28,19.36-54.28,46.18A22.4,22.4,0,0,1-2543,206V587.02c2.24,9.13,5.4,17.78,12,24.83,9.09,9.72,20.21,15.18,33.55,15.19q132.615.135,265.23.02c13.17,0,24.03-8.3,28.02-20.85.34-1.08.8-2.13,1.2-3.19V188C-2203.61,186.12-2204.23,184.24-2204.84,182.36Zm-324.14,32.24c.01-25.72,17.98-43.65,43.74-43.66q121.95-.06,243.91-.01c15,.01,24.32,9.31,24.32,24.33q.03,167.19,0,334.4c0,1.46-.13,2.92-.22,4.92h-6.63q-132.96,0-265.91-.1c-14.33-.04-27.47,2.27-38.86,12.96-.16-2.17-.35-3.55-.36-4.94Q-2529.005,378.55-2528.98,214.6Zm103.56,334.32v31.57c-3.63-3.4-6.78-6.34-9.93-9.29-5.62-5.28-8.27-5.28-13.95.02-2.92,2.72-5.83,5.46-8.75,8.18a6.392,6.392,0,0,1-1.21.38V548.92Zm208.4,47.72c-.04,10.19-6.32,16.44-16.57,16.45q-131.43.03-262.86-.02c-16.92-.01-30.83-12.07-32.56-27.87-1.85-16.96,8.13-32.63,24.46-35.46,9.81-1.7,20.14-.31,30.96-.31v40.45c0,1.84.02,3.67,0,5.5-.02,3.58.82,7.31,4.57,7.91a11.743,11.743,0,0,0,8.37-2.42c6.27-5.19,12.01-11.03,18.32-16.95,5.87,5.52,11.67,10.94,17.43,16.41,2.63,2.5,5.35,4.79,9.25,3.18,4.05-1.67,4.64-5.17,4.61-9.09-.08-13.33-.03-26.66-.03-39.99v-5.59h193.71c.12,1.28.34,2.55.34,3.82C-2216.99,567.32-2216.95,581.98-2217.02,596.64Z" fill="#b68c5a"/>
    <path id="Path_65688" data-name="Path 65688" d="M-2279.32,369.52q-23.07-23.205-46.26-46.32c-1.27-1.27-2.47-2.59-3.66-3.85,4.87-6.71,5.39-9.8,2.33-12.92-3.19-3.25-6.14-2.75-12.15,1.63-4.35-3.98-8.6-7.85-12.62-11.52,6.25-6.21,12.38-12.29,18.77-18.64,1.45,1.37,3.02,3.06,4.81,4.49,3.15,2.52,6.54,2.65,9.46-.21s2.8-6.23.41-9.47a23.861,23.861,0,0,0-2.39-2.54q-27.015-27.045-54.05-54.08c-3.06-3.06-6.1-6.15-9.2-9.17-4.13-4.02-8.24-4.45-11.34-1.25-2.94,3.04-2.48,7,1.27,10.95,1.09,1.16,2.17,2.33,2.99,3.2-22.22,22.17-44.02,43.91-65.88,65.73a55.441,55.441,0,0,0-5.26-4.77,6.387,6.387,0,0,0-8.68.58c-2.8,2.65-3.06,5.84-.91,9.03a25.844,25.844,0,0,0,3.37,3.66q25.425,25.455,50.88,50.89c3.76,3.77,7.52,7.56,11.31,11.3,4.44,4.4,8.44,4.93,11.66,1.61,3.06-3.16,2.5-7.11-1.59-11.35-.98-1.01-1.91-2.08-1.97-2.14,6.52-6.51,12.7-12.68,18.27-18.23,3.54,3.32,7.63,7.14,11.71,10.96-5.64,7.03-6.55,10.14-3.51,13.27,1.09,1.12,3.11,2.6,4.18,2.25,3.58-1.14,6.92-3.04,11.03-4.97.68.77,1.82,2.21,3.12,3.5q22.77,22.815,45.56,45.6c4.6,4.63,9.94,7.26,16.53,6.68,8.03-.71,13.78-4.92,16.7-12.37C-2271.25,382.93-2273.25,375.63-2279.32,369.52Zm-129.61-37.64c-11.71-11.77-23.96-24.09-35.86-36.06,21.04-21.04,42.79-42.8,64.6-64.6,11.83,11.84,24.06,24.08,35.96,35.98C-2365.79,288.76-2387.55,310.5-2408.93,331.88Zm51.16-5.43c-3.8-3.9-7.82-8.02-12.11-12.42,2.38-2.23,4.89-4.59,7.22-6.78,3.92,4.06,7.88,8.16,11.71,12.13C-2352.79,321.29-2355.27,323.85-2357.77,326.45Zm69.17,61.49c-2.47,2.83-5.72,2.27-9.45-1.44-16.38-16.29-32.73-32.6-49.39-49.2,2.88-2.94,5.29-5.4,8.33-8.5,4.47,4.71,8.82,9.46,13.35,14.03q17.745,17.88,35.62,35.62C-2287.27,381.32-2285.41,384.29-2288.6,387.94Z" fill="#b68c5a"/>
    <path id="Path_65689" data-name="Path 65689" d="M-2276.23,491.45a6.445,6.445,0,0,1-6.15,6.66,41.533,41.533,0,0,1-4.99.15q-42.945.015-85.9.01-42.7,0-85.4-.01a41.4,41.4,0,0,1-4.99-.15,6.448,6.448,0,0,1-6.12-6.7c-.11-3.52,1.89-6.01,5.43-6.8a22.791,22.791,0,0,1,4.96-.33q86.4-.015,172.81,0a22.057,22.057,0,0,1,4.95.34C-2278.09,485.43-2276.1,487.93-2276.23,491.45Z" fill="#b68c5a"/>
    <path id="Path_65690" data-name="Path 65690" d="M-2296.14,451.38c-.03,3.89-3.06,6.78-7.65,6.83-10.82.12-21.63.05-32.45.06h-36.95q-32.955,0-65.91-.01a30.44,30.44,0,0,1-4.97-.2c-3.63-.61-6.07-3.19-5.54-6.51.39-2.45,2.75-4.9,4.82-6.64,1.14-.97,3.5-.62,5.32-.62q66.405-.045,132.81-.02c.99,0,2-.05,2.99.03C-2299.1,444.67-2296.11,447.5-2296.14,451.38Z" fill="#b68c5a"/>
    <path id="Path_65691" data-name="Path 65691" d="M-2268.25,583.78c-1.47,2.14-5.08,3.87-7.77,3.94-14.82.37-29.65.18-44.48.18s-29.65.04-44.48-.03c-5.36-.02-8.37-2.79-8.26-7.21.09-4.11,2.82-6.66,7.65-6.72,9.49-.11,18.99-.04,28.48-.04,20.49,0,40.99-.04,61.48.03C-2269.11,573.95-2265.06,579.14-2268.25,583.78Z" fill="#b68c5a"/>
  </g>
</svg>
