<svg xmlns="http://www.w3.org/2000/svg" width="510" height="510" viewBox="0 0 510 510">
  <g id="Criminal_Law_-ic" data-name="Criminal Law -ic" transform="translate(2615 -1483)">
    <path id="Path_65724" data-name="Path 65724" d="M-2615,1763c2.288-3.588,4.012-7.757,6.98-10.646,6.621-6.443,14.726-6.91,23.708-3.163,0-2.995.213-5.3-.033-7.552-1.81-16.54,13.089-29.034,29.874-22.292,3.255-15.235,10.523-22.116,22.68-21.47,11.767.625,17.246,8.014,19.382,26.34,1.121-.236,2.235-.416,3.32-.707,13.577-3.638,25.947,5.53,26.051,19.587.145,19.831.041,39.663.043,59.495v2.874l.774.2c1.393-3.637,2.731-7.3,4.189-10.906,4.414-10.924,15.811-16.326,26.467-12.591a20.535,20.535,0,0,1,12.619,26.792q-15.252,41.443-31.332,82.581c-1.633,4.181-5.192,7.633-7.974,11.336-2.046,2.722-4.279,5.3-7.074,8.742,10.846,0,20.4,0,29.961,0,8.561-17.864,20.243-23.119,39.887-18.251,1.306.323,3.549-.946,4.6-2.139,11.28-12.752,31.736-14.055,43.985-2.661a25.056,25.056,0,0,1,8.217,18.118c3.992,1.086,7.915,1.833,11.576,3.253,2.74,1.063,6.1,2.392,7.521,4.649,4.56,7.222,10.365,6.455,16.89,3.689,3.8-20.861,19.716-31.344,38.757-25.331a27.924,27.924,0,0,1,17.761,15.712c.641,1.4,2.6,3.074,4,3.121,8.648.287,17.31.144,27.424.144-2.66-3.448-4.831-5.979-6.683-8.724-3.408-5.052-7.577-9.858-9.764-15.421-10.043-25.542-19.569-51.288-29.155-77.007-4.616-12.383.355-24.234,11.662-28.464a20.968,20.968,0,0,1,26.527,11.613c1.563,3.62,2.83,7.367,5.007,11.029.075-1.364.213-2.728.214-4.092q.021-27.747.016-55.495c.022-16.8,11.406-25.532,27.819-21.387a6.092,6.092,0,0,0,1.461.015c2.662-18.984,8.411-26.164,20.92-26.151,11.451.011,19.082,7.724,20.971,21.584,8.909-3.357,17.134-2.61,24.252,4.257,7.244,6.99,5.522,16.2,5.849,23.979,5.532,0,10.7-.764,15.546.172,8.114,1.568,12.1,8.072,15.1,15.171v108c-2.419,13.393-9.008,24.617-17.042,35.449-3.853,5.2-5.352,12.137-7.921,18.3,17.729,6.935,22.76,14.405,22.762,32.289,0,9.313.281,18.64-.175,27.93-.134,2.731-2.358,5.359-3.624,8.034h-138c-1.214-2.548-3.381-5.061-3.475-7.65-.393-10.813-.293-21.652-.129-32.478.191-12.6,6-21.493,17.877-26.257,1.09-.437,1.8-1.813,2.692-2.753-1.125-.431-2.244-1.219-3.375-1.235-7.828-.111-15.669.177-23.484-.156-4.359-.186-6.735.891-8.49,5.305-2.563,6.445-8.034,10.535-14.472,13a96.76,96.76,0,0,1-9.626,2.633,65.983,65.983,0,0,1-1.217,7.28c-5.152,18.413-29.5,25.78-45.978,13.963-8.479-6.081-8.479-6.081-19.37-5.712-16.185.549-26.331-8.177-30.651-26.319-3.091-.675-6.265-1.049-9.192-2.106-2.446-.883-3.721-.5-5.439,1.518-14.736,17.3-41.187,13.737-50.879-6.637a5.474,5.474,0,0,0-3.906-2.7c-8.822-.243-17.656-.191-26.482-.047-1.155.019-2.292,1.112-3.437,1.708.892.793,1.653,1.918,2.7,2.33,12.135,4.8,17.831,13.911,17.957,26.7.105,10.661.254,21.332-.143,31.978-.1,2.585-2.262,5.092-3.476,7.634h-139c-.933-3.037-2.543-6.045-2.671-9.116-.365-8.792-.129-17.609-.128-26.416,0-18.3,4.658-25.288,22.758-32.731-2.565-6.147-4.074-13.089-7.925-18.3-8.009-10.837-14.655-22.03-17.034-35.438Zm475.253,161.915a54.757,54.757,0,0,1,12.387-29.715c8.161-9.764,11.709-20.946,11.616-33.669-.22-30.162-.068-60.326-.078-90.49a35.287,35.287,0,0,0-.2-5.486,9.8,9.8,0,0,0-10.006-8.009,9.213,9.213,0,0,0-9.136,8.248,66.09,66.09,0,0,0-.5,7.968q-.078,19.748-.017,39.495c.008,3.63-1.216,6.492-5.191,6.531-3.929.037-5.335-2.675-5.331-6.377.022-16.493-.015-32.987-.023-49.48,0-8.5.16-17-.038-25.5-.142-6.114-4.48-10.377-9.971-10.366-5.511.012-9.578,4.339-9.765,10.434-.066,2.165-.067,4.332-.067,6.5q-.007,33,0,65.993c0,6.186-1.74,8.978-5.5,8.891-3.706-.085-5.281-2.8-5.294-9.122q0-2.25,0-4.5,0-42.493-.026-84.988a21.317,21.317,0,0,0-.649-6.4,9.646,9.646,0,0,0-10.689-6.312c-5.008.853-8.286,4.569-8.38,10.271-.176,10.645-.065,21.3-.067,31.942q-.006,31,.013,61.993c.007,3.739-.9,6.975-5.218,7.007-4.275.032-5.355-3.075-5.328-6.883.071-10.332.022-20.665.021-31,0-12.165.125-24.333-.1-36.494a16.861,16.861,0,0,0-2.111-8.481c-2.219-3.449-5.972-4.643-10.132-3.151-4.7,1.683-6.618,5.142-6.612,10.024q.055,45.493.026,90.989c0,3.633.017,7.4-4.574,8.186-4.654.8-5.769-2.947-7-6.278-4.488-12.175-8.934-24.365-13.464-36.524-2.615-7.022-8.019-10.01-13.875-7.823-5.8,2.167-7.859,7.911-5.215,15.014,5.512,14.811,10.849,29.694,16.716,44.363,7.163,17.911,11.529,37.015,25.49,51.942,4.764,5.094,5.741,13.731,8.64,21.248Zm-359.257.007c.478-10.089,3.275-19.173,10.1-25.883,6.979-6.86,10.55-15.168,13.753-23.943,2.166-5.936,4.442-11.832,6.678-17.743,6.357-16.8,12.758-33.577,19.059-50.4,2.5-6.668.3-12.4-5.352-14.584-5.687-2.2-11.145.68-13.729,7.257-.547,1.392-1.03,2.81-1.55,4.213-4.328,11.7-8.483,23.466-13.164,35.02-.76,1.878-4.039,4.081-5.816,3.822s-3.362-3.284-4.576-5.361c-.584-1-.132-2.608-.132-3.941q0-43.482-.01-86.965a33.888,33.888,0,0,0-.234-5.481,9.566,9.566,0,0,0-9.143-7.775,9.149,9.149,0,0,0-9.127,7.638,45.106,45.106,0,0,0-.543,7.457q-.06,31.237-.027,62.475c0,1.5.491,3.369-.215,4.412-1.247,1.844-3.213,4.361-4.929,4.4-1.7.04-3.848-2.374-5.066-4.2-.784-1.176-.289-3.235-.29-4.9q-.015-44.215-.031-88.431a26.9,26.9,0,0,0-.59-6.429c-.978-3.916-3.753-6.854-7.657-6.752a14.733,14.733,0,0,0-9.129,3.514c-1.793,1.711-2.3,5.416-2.316,8.242-.155,29.653-.1,59.307-.1,88.961,0,1.333.02,2.666-.013,4-.092,3.65-1.648,6.336-5.561,6.248-3.6-.082-5.149-2.62-5.207-6.083-.026-1.5-.011-3-.012-4.5-.023-23.657,0-47.314-.1-70.971-.025-5.827-4.128-10.012-9.494-10.175-5.258-.16-9.653,3.942-10.211,9.619-.146,1.486-.068,3-.068,4.495q0,34.228-.006,68.458c0,1.5.491,3.355-.205,4.416-1.222,1.864-3.35,4.644-4.8,4.476-1.949-.225-3.981-2.646-5.266-4.593-.775-1.175-.216-3.24-.23-4.9-.119-14.154-.029-28.313-.438-42.459-.19-6.562-4.32-10.24-9.94-10.036-5.574.2-9.459,4.416-9.467,10.707q-.063,48.731.029,97.46c.015,8.73,2.317,17.022,7.532,23.92,8.03,10.622,15.3,21.414,16.212,35.3Zm380.912,56.924c0-10.961.387-21.6-.131-32.206-.369-7.568-7.271-13.6-14.787-13.626q-46.726-.144-93.453.007c-7.938.025-14.78,5.823-15.21,13.712-.577,10.584-.143,21.224-.143,32.113Zm-483.866.128h123.707c0-11.051.506-21.863-.171-32.6-.485-7.7-7.337-13.305-15.057-13.332q-46.735-.165-93.472,0c-7.759.03-14.6,6.365-14.906,14.11C-2602.265,1960.6-2601.958,1971.08-2601.958,1981.974Zm309.967-79.9c-10.647.017-18.306,5.763-19.53,13.43-.445,2.789.31,4.309,3.055,5.859,4.245,2.4,7.885,5.86,11.812,8.83.992.75,2.036,1.775,3.165,1.943,7.006,1.041,15.723-4.635,17.554-11.242,1.994-7.194-1.939-14.268-9.828-17.261A42.455,42.455,0,0,0-2291.991,1902.073Zm-119.032,22.337c-2.006-6.512-3.509-11.823-5.329-17.023-.517-1.474-1.7-3.286-3.023-3.812a19.394,19.394,0,0,0-19.371,2.357c-8.348,5.985-8.261,16.628.053,22.68C-2429.629,1935.21-2416.61,1932.788-2411.023,1924.41Zm23.342-33.029-.633-1.224c-4.441,2.293-9.026,4.351-13.267,6.966-2.527,1.558-2.77,3.7-.824,6.688a27.339,27.339,0,0,1,4.126,11c.436,3.294,1.2,5.46,4.517,5.9,3.536.468,7.048,2.648,10.441-1.478a39.415,39.415,0,0,1,10.636-8.712c2.915-1.688,3.627-3.317,3-6.327C-2371.218,1896.773-2378.776,1891.32-2387.681,1891.381Zm66.817,68.36c9.608-.091,17.469-5.959,18.124-13.661a7.137,7.137,0,0,0-2.318-5.132,81.193,81.193,0,0,0-12.925-9.772c-2.335-1.321-5.9-1.142-8.733-.633-1.481.266-2.985,2.524-3.753,4.212a127.34,127.34,0,0,0-5.157,13.276c-.5,1.525-.62,3.9.232,5.012C-2331.693,1957.854-2326.315,1959.48-2320.864,1959.741Zm-38.879-11.581c7.808.12,9.232-1.155,10.9-8.4a29.6,29.6,0,0,1,3.457-8.216c2.912-4.936,3-6.386-1.808-9.465a36.257,36.257,0,0,0-9.593-3.865c-2.877-.821-5.037.257-7.212,2.824a32.94,32.94,0,0,1-9.994,7.978c-3.411,1.724-3.647,3.835-3.082,6.813C-2375.759,1942.763-2368.351,1948.028-2359.743,1948.16Z" fill="#b68c5a"/>
    <path id="Path_65725" data-name="Path 65725" d="M-2358,1483c5.665,9.125,11.824,17.99,16.818,27.468,3.248,6.164,1.055,12.68-2.771,18.685l5.257,4.834c23.676-13.119,45.239-5.364,66.314,6.906,14.143-8.688,24.209-8.017,30.781,2.058,6.075,9.313,3.051,19.724-8.4,27.925,6.309,16.309,12.634,32.734,19.018,49.136,4.585,11.783,9.362,23.492,13.8,35.331,1.121,2.995,2.587,4.016,5.761,3.991,7.667-.059,9.485,2.86,6.706,10.054a56.107,56.107,0,0,1-52.37,35.791,56.24,56.24,0,0,1-52.6-35.493c-2.933-7.481-1.141-10.061,6.806-10.555,1.724-.108,4.34-1.33,4.881-2.7,11.145-28.15,22.05-56.4,32.989-84.627a6.338,6.338,0,0,0,.115-1.384c-6.838-3.816-11.016-9.6-11.166-17.893a2.829,2.829,0,0,0-1.274-1.924c-13.849-8.548-28.212-15.2-45.179-11.663a47.818,47.818,0,0,0-4.776,1.42c-4.015,1.292-5.961,3.006-4.917,8.187,2.047,10.152-1.545,18.916-9.008,26.236a10.284,10.284,0,0,0-2.906,6.666,445.414,445.414,0,0,0,14.578,107.138c.374,1.45.773,2.893,1.138,4.346.855,3.406-.08,6.11-3.61,7.071-3.547.966-5.86-.923-6.7-4.288-2.178-8.715-4.346-17.439-6.231-26.221a479.536,479.536,0,0,1-10.14-87.47h-10.156c-.552,9.05-1.027,17.985-1.655,26.909A470.507,470.507,0,0,1-2381.3,1694c-.083.322-.244.625-.314.948-.821,3.844-2.968,6.154-7.061,5-4-1.131-4-4.444-3.224-7.754,2.116-9.073,4.535-18.082,6.416-27.2a448.748,448.748,0,0,0,9.259-83.791,9.374,9.374,0,0,0-2.873-6.134c-8.211-7.724-11.559-16.988-9.269-27.994.651-3.13-.184-4.538-2.85-5.767-10.3-4.75-20.849-4.4-31.165-.764-6.85,2.414-13.289,6.039-19.785,9.367a5.351,5.351,0,0,0-2.6,3.666c-.45,7.749-4.406,13.046-11.391,16.964,1.819,4.934,3.561,9.9,5.47,14.8,9.066,23.25,18.239,46.457,27.2,69.748,1.2,3.117,2.637,4.337,6.088,4.268,7.236-.145,9.146,2.986,6.544,9.855a56.146,56.146,0,0,1-52.248,35.97,56.124,56.124,0,0,1-52.88-35.783c-2.738-7.155-.877-9.792,6.731-10.256,1.758-.108,4.457-1.214,4.99-2.551,11.325-28.426,22.4-56.95,33.474-85.32-12.324-11.328-14.533-21.028-7.06-29.986,7.274-8.72,17.747-8.855,29.125-.376,33.58-16.311,44.475-17.474,66.673-6.978l5.414-4.727c-.721-1.482-1.851-2.871-2.047-4.381-.569-4.384-2.131-9.272-.843-13.143A71.53,71.53,0,0,1-2362,1483Zm61.018,187.377c5.316,14.039,24.59,25.267,41.435,24.223,17.206-1.066,34.968-12.528,37.892-24.582q-39.027,0-77.979.015A5.676,5.676,0,0,0-2296.982,1670.377Zm-206.655-.181c8.017,15.941,26.107,25.862,43.259,24.279,16.549-1.526,28.784-9.495,37.5-24.279Zm143.145-99.074a18.072,18.072,0,0,0,18.284-17.866,18.29,18.29,0,0,0-18-18.238,18.062,18.062,0,0,0-18.175,17.961A17.851,17.851,0,0,0-2360.492,1571.122Zm133.35,87.934c-8.152-20.811-16.017-40.89-23.881-60.969l-.606.266v60.7Zm-230.745-.095h24.483c-8.056-20.592-15.912-40.676-23.769-60.759l-.714.219Zm-11.124-60.473-.863-.06-23.588,60.39h24.451Zm206.07.594-.862-.221c-7.786,19.922-15.573,39.843-23.485,60.085h24.347Zm-96.347-101.419-1.728.082c-2.785,5.545-5.692,11.035-8.266,16.676-.613,1.342-.375,3.243-.075,4.8,1.126,5.846,5.5,5.256,9.984,5.213,6.4-.061,10.383-3.851,8.338-9.625C-2353.14,1508.865-2356.485,1503.36-2359.288,1497.663Zm110.095,55.3a8.3,8.3,0,0,0-8.073-7.886,8.028,8.028,0,0,0-7.895,8.457,7.642,7.642,0,0,0,8.2,7.468A7.935,7.935,0,0,0-2249.193,1552.961Zm-206.293.57a8.18,8.18,0,0,0-7.956-8.464,8.061,8.061,0,0,0-7.973,7.883,7.732,7.732,0,0,0,7.659,8.049A7.846,7.846,0,0,0-2455.486,1553.531Z" fill="#b68c5a"/>
    <path id="Path_65726" data-name="Path 65726" d="M-2360.2,1815.816c-13.152,0-26.3.027-39.456-.011-6.112-.017-7.592-1.505-7.786-7.664-.121-3.827-.181-7.656-.213-11.485-.041-4.99,1.691-8.916,6.089-11.817,1.368-.9,2.251-3.458,2.307-5.288.554-17.97.923-35.946,1.272-53.922.291-15.037,7.945-22.711,22.875-22.749,10.321-.025,20.644-.055,30.965.01,13.278.085,21.15,7.35,21.7,20.808.751,18.294,1.041,36.608,1.385,54.917.06,3.151.284,5.491,3.6,7.284a9.318,9.318,0,0,1,4.361,6.223,122.643,122.643,0,0,1,.142,19.386c-.244,3.7-3.551,4.323-6.793,4.317Q-2339.971,1815.791-2360.2,1815.816Zm27.1-32.807c0-20.535.135-40.51-.084-60.482-.063-5.757-4.051-8.961-10.432-9.041-10.83-.137-21.663-.124-32.494-.018-7.738.076-10.838,3.234-11.051,10.968q-.733,26.734-1.4,53.469c-.042,1.611-.006,3.224-.006,5.1Zm9.8,11.71h-73.248v10h73.248Z" fill="#b68c5a"/>
    <path id="Path_65727" data-name="Path 65727" d="M-2430.657,1750.872c-5.493,0-10.987-.017-16.48.006-3.824.017-6.8-1.346-6.714-5.567.085-3.912,2.978-5.232,6.574-5.227q16.73.025,33.46.043c3.8,0,6.8,1.319,6.7,5.581-.094,3.934-2.956,5.227-6.56,5.216-5.66-.017-11.32,0-16.98,0Z" fill="#b68c5a"/>
    <path id="Path_65728" data-name="Path 65728" d="M-2289.839,1750.92c-5.494,0-10.987-.013-16.481,0-3.6.011-6.466-1.278-6.562-5.213-.1-4.262,2.9-5.58,6.7-5.584q16.73-.016,33.46-.043c3.595-.006,6.49,1.312,6.577,5.223.094,4.221-2.885,5.587-6.711,5.572-5.659-.024-11.319-.006-16.979-.006Z" fill="#b68c5a"/>
    <path id="Path_65729" data-name="Path 65729" d="M-2311.807,1759.261c10.768,2.371,20.37,4.252,29.8,6.786,1.611.434,3.8,4.089,3.349,5.495-.6,1.883-3.758,4.505-5.4,4.24-9.637-1.551-19.212-3.631-28.651-6.125-1.514-.4-3.231-3.876-3.047-5.753C-2315.59,1762.133-2313.034,1760.595-2311.807,1759.261Z" fill="#b68c5a"/>
    <path id="Path_65730" data-name="Path 65730" d="M-2437.324,1776.52c-1.21-1.367-3.806-3.017-4.049-4.961-.219-1.745,1.81-5.1,3.431-5.528,9.281-2.442,18.7-4.474,28.17-5.993,1.691-.272,4.885,2.171,5.506,4,.491,1.447-1.532,5.225-3.068,5.64C-2416.759,1772.222-2426.364,1774.1-2437.324,1776.52Z" fill="#b68c5a"/>
    <path id="Path_65731" data-name="Path 65731" d="M-2311.2,1734.46c-1.609-1.414-4.038-2.537-4.4-4.129-.416-1.839.408-5.365,1.7-5.957q13.76-6.3,28.03-11.438c1.311-.472,4.455,1.532,5.285,3.144.692,1.344-.189,5.009-1.36,5.564C-2291.347,1726.1-2300.992,1730.071-2311.2,1734.46Z" fill="#b68c5a"/>
    <path id="Path_65732" data-name="Path 65732" d="M-2435.463,1712.242c2.072.644,3.206.908,4.271,1.342,7.675,3.129,15.326,6.314,23,9.434,3.4,1.383,5.361,3.754,3.929,7.356s-4.467,4-7.882,2.575c-7.954-3.318-15.93-6.586-23.892-9.885-2.978-1.233-4.855-3.488-3.621-6.6C-2438.94,1714.664-2436.728,1713.456-2435.463,1712.242Z" fill="#b68c5a"/>
    <path id="Path_65733" data-name="Path 65733" d="M-2231.852,1961.021c-1.38-1.856-3.577-3.561-3.952-5.6-.587-3.2,1.8-5.732,4.926-5.132a7.238,7.238,0,0,1,4.691,4.86c.251,1.74-2.123,3.86-3.341,5.812Z" fill="#b68c5a"/>
    <path id="Path_65734" data-name="Path 65734" d="M-2229.445,1964.99c1.189,1.965,3.538,4.119,3.257,5.844a7.236,7.236,0,0,1-4.76,4.813,4.2,4.2,0,0,1-4.854-5.221c.414-2.036,2.636-3.705,4.048-5.538Z" fill="#b68c5a"/>
    <path id="Path_65735" data-name="Path 65735" d="M-2483.258,1956.465c-1.954,1.237-3.787,3.186-5.89,3.542-3.016.511-4.927-1.61-4.946-4.75-.021-3.379,2.041-5.585,5.222-5.017,2.062.368,3.793,2.592,5.671,3.985Z" fill="#b68c5a"/>
    <path id="Path_65736" data-name="Path 65736" d="M-2483.23,1971.85c-1.918,1.349-3.713,3.552-5.781,3.848-3.17.453-5.674-1.965-4.9-5.131.465-1.9,3.109-4.331,4.969-4.512,1.775-.172,3.8,2.263,5.722,3.552Z" fill="#b68c5a"/>
  </g>
</svg>
