<svg xmlns="http://www.w3.org/2000/svg" width="496" height="496" viewBox="0 0 496 496">
  <g id="Election_Law_-ic" data-name="Election Law -ic" transform="translate(823 -188)">
    <path id="Path_65701" data-name="Path 65701" d="M-823,420V404h33.359c-.47-5.522-1.17-10.623-1.262-15.735-.087-4.786,3.155-8.8,7.591-8.018,9.984,1.761,13.488-3.649,15.527-11.773a48.964,48.964,0,0,1,2.4-6.019q13.69-34.26,27.395-68.573c-1.371-1.288-2.612-2.38-3.771-3.554a31.719,31.719,0,0,1-6.355-35.574c5.437-12.039,17.95-20.31,30.9-18.4,7.541,1.115,13.6-.784,19.919-3.727,2.411-1.123,4.861-2.168,7.322-3.179,18.178-7.467,37.017-10.994,56.628-8.562,9.187,1.139,18.256,3.231,26.619,4.753,7.637-10.413,15.2-20.9,22.989-31.212,1.847-2.445,4.469-4.3,6.734-6.431h4c1.561,1.2,3.488,2.121,4.625,3.637,8.453,11.274,16.75,22.665,25.458,34.513.261-.068,1.533-.357,2.782-.726a121.31,121.31,0,0,1,45.887-4.695c17.244,1.561,32.82,8.06,48.484,14.644a17.407,17.407,0,0,0,9.436,1.052c18.522-3.5,36.661,10.7,37.465,29.538.493,11.558-4.227,20.606-13.106,27.819.584,1.517,1.1,2.906,1.653,4.284,9.618,24.089,19.51,48.075,28.694,72.329,2.674,7.063,5.574,11.036,13.928,9.809,5.433-.8,8.744,3.035,8.61,8.571-.12,4.944-.827,9.875-1.313,15.225H-327v16c-11.833,0-23.668.118-35.5-.08-3.1-.052-4.633,1.024-6.154,3.667-27.895,48.457-96.88,48.466-124.7.016-1.516-2.64-3.031-3.72-6.141-3.682-14.831.179-29.667-.086-44.5.124-23.338.331-43.584,8.549-60.406,24.77-9.476,9.137-18.7,18.538-27.966,27.891-8.73,8.81-9.113,21.245-1.017,29.451,8.226,8.339,20.784,7.95,29.821-.981,6.282-6.209,12.493-12.49,18.744-18.73,17.281-17.252,37-19.228,57.325-5.694q51.982,34.612,103.94,69.265c1.5,1,3.045,1.915,4.869,3.058.417-1.051.714-1.768.988-2.495,7.815-20.734,22.018-30.569,44.189-30.579q23.248-.01,46.5,0v16h-45.493c-17.3,0-25.459,6.039-30.913,22.547-.9,2.724-.785,4.295,1.624,6.32,10.619,8.92,13.624,22.221,8.128,34.233-5.507,12.035-18.111,18.61-31.714,16.55-1.89-.286-3.785-.537-5.84-.826-1.873,9.523-6.412,16.554-14.34,21.3-8.067,4.826-16.766,4.267-25.7,2.619-1.922,10.346-7.09,17.7-16.007,22.278-8.9,4.565-18.046,3.092-27.067.7-5.649,17.849-17.03,27.038-32.243,24.8-7.372-1.085-14.7-4.006-21.455-7.317-7.525-3.689-14.37-8.765-21.528-13.248C-598.731,670.681-606.2,680.942-619,684h-11c-5.518-3.2-11.543-5.779-16.383-9.793-3.506-2.908-5.441-7.713-8.186-11.839-9.039,6.019-18.918,7.5-29.261,3.346-10.306-4.141-16.19-12.27-18.895-22.735-21.224,4.862-39.158-7.816-40.742-30.561a3.064,3.064,0,0,0-.874-.342c-13.808-.811-23.836-7.282-28.666-20.368-4.868-13.19-.981-24.509,8.979-33.985,3.472-3.3,7.04-6.508,10.431-9.636-3.1-4.767-5.873-8.541-8.091-12.617-1.492-2.742-3.289-3.56-6.314-3.537-18.332.135-36.665.067-55,.067V516c20.495,0,40.991.093,61.485-.066,5.089-.039,8.442,1.675,10.768,6.329s5.333,8.955,8.257,13.765c8.835-9.1,18.5-13.766,30.631-11.373,12.016,2.371,19.461,10.037,23.856,21.295,9.582-6.279,19.445-7.849,29.791-3.691,10.313,4.145,16.223,12.245,19,23.058,10.447-2.7,19.866-1.287,28.242,5.1s11.758,15.325,12.254,25.373c14.222.8,24.438,6.995,29.561,19.967,5.21,13.193,1.017,24.639-8.332,34.524.839.664,1.2,1.011,1.622,1.275,5.346,3.382,10.539,7.055,16.106,10.025a51.627,51.627,0,0,0,12.937,4.9c7.036,1.559,13.278-1.929,15.553-7.84,2.284-5.936.433-10.231-6.344-14.755-8.535-5.7-17.066-11.4-25.761-17.211,3.093-4.628,5.851-8.757,8.838-13.227,2.642,1.728,4.99,3.242,7.315,4.791,10.117,6.739,19.962,13.945,30.454,20.037a48.207,48.207,0,0,0,17.237,5.483c5.75.806,10.578-3.646,12.117-9.171,1.46-5.243.24-7.746-5.689-11.7q-21.2-14.129-42.4-28.264c-3.859-2.575-7.7-5.185-11.839-7.979,3.006-4.518,5.817-8.745,8.738-13.137,1.844,1.152,3.267,1.99,4.639,2.9q28.476,18.972,56.934,37.972c5.4,3.616,11.229,5.825,17.8,5.565a12.791,12.791,0,0,0,11.945-9.662c1.524-5.659-1.608-8.36-5.952-11.08-21.872-13.7-43.594-27.633-65.363-41.494-1.5-.958-2.965-1.985-4.6-3.082,2.981-4.637,5.723-8.9,8.549-13.3,2.086,1.3,3.644,2.243,5.182,3.221,23.739,15.108,47.412,30.32,71.272,45.234a48.082,48.082,0,0,0,13.68,5.707c7.726,1.925,14.022-1.342,16.543-7.611,2.5-6.207.288-12.055-6.442-16.547q-61.078-40.769-122.2-81.466c-13.519-8.989-25.22-7.655-36.793,3.887-6.726,6.706-13.3,13.57-20.2,20.091a36.006,36.006,0,0,1-40.325,6.788A36.264,36.264,0,0,1-654.925,486c.44-9.763,4.458-17.972,11.4-24.8q19.879-19.536,39.8-39.145a38.382,38.382,0,0,0-5.885-1.025c-14.144-.414-28.29-.8-42.438-.889-1.425-.009-3.385,1.709-4.219,3.138-28.6,48.983-96.957,48.986-125.339-.135-1.522-2.636-3.189-3.221-5.9-3.2C-799.338,420.061-811.169,420-823,420Zm216-15.751V399.1c0-25.332-.061-50.664.058-75.995a22.469,22.469,0,0,0-2.983-12.253,40.769,40.769,0,0,1-4.313-12.122c-2.317-10.776.133-13.947,11.627-15.119-1.308-1.653-2.093-3.494-3.473-4.257-11.47-6.34-23.465-10.882-36.842-11.339-16.876-.576-31.279,6.976-46.1,13.269a5.156,5.156,0,0,0-1.823,1.637c-2.935,3.762-5.821,7.562-8.882,11.555-.011-.174-.043.008.015.153,10.131,25.332,20.578,50.545,30.2,76.067,2.673,7.086,5.656,10.517,13.644,9.495,5.727-.733,8.957,3.056,8.785,8.923-.142,4.808-.838,9.6-1.358,15.136Zm156.6-109.355c-5.943-11-15.278-15.861-25.578-20.305-23.494-10.135-45.7-8.008-67.414,4.49-1.536.885-2.572,2.636-4.228,4.4,11.992,1.544,14.246,4.489,11.74,15.657-1.038,4.629-3.367,8.96-4.975,13.474-.862,2.418-2.038,4.934-2.052,7.411-.148,26.323-.1,52.647-.082,78.971,0,1.6.142,3.19.216,4.748H-501.4c-.331-2.408-.608-4.55-.923-6.686-2.134-14.444-.19-16.9,14.222-16.954,3.14-.012,4.234-1.3,5.252-3.9,6.318-16.1,12.784-32.148,19.206-48.21C-459.089,316.59-454.524,305.194-450.4,294.894ZM-773.979,396.185c1.965,27.194,29.843,49.564,58.774,47.7,26.039-1.681,52.11-26.076,50.813-47.7Zm288.01-.007c1.843,27.093,29.792,49.549,58.733,47.7,26.039-1.66,51.962-25.882,50.872-47.7ZM-597.524,300.16c1.063,2.045,1.486,3.575,2.451,4.59,3.766,3.96,4.179,8.686,4.142,13.854-.161,22.632-.069,45.267-.069,67.9V408.87c3.362.8,6.743,2.673,9.639,2.1,7.434-1.475,14.652-4.036,22.361-6.281v-5.209c0-26.462.075-52.924-.059-79.386-.029-5.773.01-11.273,4.4-15.777.923-.947,1.223-2.5,1.984-4.155Zm-85.667,79.708a19.65,19.65,0,0,0-.5-1.929c-10-25.007-20.088-49.98-29.916-75.054-1.292-3.3-3.361-2.755-5.828-3.011-2.889-.3-4.076.82-5.083,3.381-7.18,18.254-14.511,36.449-21.793,54.663-2.883,7.213-5.765,14.426-8.772,21.95Zm287.729-.069a4.386,4.386,0,0,0-.013-1.244c-10.106-25.319-20.3-50.6-30.258-75.98-1.371-3.5-3.792-2.273-6.061-2.642-2.714-.442-3.752.881-4.662,3.209C-441.6,316.3-446.9,329.395-452.15,342.511c-4.928,12.309-9.86,24.616-14.935,37.288ZM-710.311,628.167c1.944-1.114,6.019-2.5,8.816-5.212,13.982-13.542,27.679-27.381,41.372-41.219,6.556-6.625,6.8-15.342.883-21.36-6.029-6.134-14.881-5.812-21.706.917-7.464,7.36-14.84,14.81-22.245,22.229-6.582,6.6-13.274,13.086-19.686,19.843-4.411,4.648-5.422,10.252-2.688,16.149C-723.025,624.99-718.443,627.637-710.311,628.167Zm39.92,24.012c1.95-1.105,6.043-2.466,8.837-5.17,13.987-13.539,27.68-27.382,41.377-41.215,6.581-6.647,6.873-15.317.994-21.362-6-6.167-14.9-5.887-21.7.808-7,6.886-13.9,13.867-20.837,20.815-7.053,7.064-14.209,14.032-21.1,21.248-4.424,4.631-5.476,10.227-2.772,16.139C-683.088,648.932-678.519,651.6-670.391,652.179Zm-72.769-56.037c1.742-.717,5.265-1.2,7.36-3.194,10.136-9.628,20.156-19.411,29.669-29.649,5.059-5.444,4-13.852-1.237-19.041s-13.678-6.125-19.067-1.088c-10.091,9.432-19.838,19.257-29.319,29.3-4.1,4.342-4.34,9.976-1.627,15.411C-754.763,593.13-750.281,595.6-743.16,596.142Zm160.323,32.36c-.528-7.916-3.144-12.524-8.637-15.065-5.889-2.723-11.525-1.841-16.158,2.653q-13.627,13.218-26.866,26.835c-6.016,6.2-5.971,14.839-.31,20.642,5.779,5.924,14.673,5.994,21-.165,8.832-8.6,17.638-17.235,26.06-26.226C-585.182,634.438-583.919,630.48-582.837,628.5ZM-456.9,248.294c-3.179-1.4-6.189-2.781-9.249-4.047-24.229-10.02-48.747-10.786-73.43-1.916-2.35.845-4.493,2.982-6.109,5.014-4.137,5.2,1.578,8.953,2.037,13.915,27.528-13.412,54.386-11.485,80.437,1.761C-460.982,257.824-459.036,253.287-456.9,248.294Zm-149.651,12.857c.982-2.465,1.713-4.49,2.586-6.452,2.059-4.63.218-9.881-4.409-11.641-29.067-11.056-57.26-8.439-84.7,5.371l6.269,14.677C-660.609,249.655-633.894,247.973-606.547,261.151Zm47.516,6.771a16.05,16.05,0,0,0-15.925-15.9,16.041,16.041,0,0,0-16.023,16.3,16.1,16.1,0,0,0,16.172,15.653A16.063,16.063,0,0,0-559.031,267.922Zm144.007.123a16.094,16.094,0,0,0-15.8-16.027,16.049,16.049,0,0,0-16.149,15.674,16.034,16.034,0,0,0,16.043,16.271A16.046,16.046,0,0,0-415.024,268.045Zm-288.007-.205a16.047,16.047,0,0,0-16.011-15.821,16.009,16.009,0,0,0-15.937,15.869,16.037,16.037,0,0,0,16.249,16.077A16.043,16.043,0,0,0-703.031,267.84Zm112.6-27.756c10.637-5.376,20.405-5.161,30.91-.082,2.057-14.4-10.143-20.385-15.609-30.205C-580.127,219.829-592.773,225.553-590.427,240.084Z" fill="#b68c5a"/>
  </g>
</svg>
