<svg xmlns="http://www.w3.org/2000/svg" width="496" height="446.718" viewBox="0 0 496 446.718">
  <g id="Employment-ic" transform="translate(1437 -786.648)">
    <path id="Path_65716" data-name="Path 65716" d="M-941,1124.034c-3.032,5.258-6.163,10.464-9.026,15.813a10.485,10.485,0,0,0-.815,4.755c-.051,20.832-.009,41.664-.043,62.5-.028,16.45-9.628,26.167-26.013,26.18q-81.985.062-163.973,0c-16.659-.012-26.175-9.708-26.191-26.519-.02-20.333.109-40.666-.137-60.995a15.72,15.72,0,0,0-2.935-8.387c-4.215-5.89-6.823-12.15-6.82-19.433.007-12.5-.058-25,.017-37.5.065-10.8,6.692-17.4,17.514-17.44,17.813-.059,35.627-.016,54.229-.016,0-2.742-.074-5.176.012-7.6.446-12.552,9.69-22.313,22.143-22.57q23.985-.5,47.988-.014c12.313.23,21.575,9.643,22.268,21.923.147,2.607.022,5.229.022,8.263h33.637c5.665,0,11.362.38,16.99-.083,9.991-.824,17.095,2.833,21.133,12.12Zm-210.066,28.091c0,17.984-.01,36.13,0,54.276.006,8.5,2.409,10.88,11.049,10.885q42.487.025,84.977.007,38.988,0,77.978-.015c7.57-.011,10.156-2.645,10.17-10.245q.047-25.744-.005-51.491c0-1.234-.215-2.469-.365-4.078-19.927,7.508-40.325,10.19-60.942,11.854-1.327.107-3.1,2.139-3.618,3.639-4.36,12.543-14.618,20.227-27.354,20.17-12.429-.056-22.927-7.782-26.745-20.147-.924-2.993-2.382-3.669-5.227-3.967-10.422-1.091-20.886-2.091-31.183-3.957C-1131.911,1157.32-1141.3,1154.525-1151.066,1152.125Zm-9.888-72.883c0,12.767.133,24.927-.059,37.081-.09,5.622,1.768,10.234,6.141,13.524a51.036,51.036,0,0,0,11.427,6.973c18.016,7.147,37.061,9.187,56.21,10.328,1.3.078,3.181-1.415,4.013-2.686,11.965-18.275,36.618-18.49,48.2-.172,1.65,2.609,3.313,3.225,6.041,2.889,9.745-1.2,19.566-1.907,29.237-3.527,11.481-1.924,22.947-4.309,32.971-10.793,6.572-4.251,10.723-9.821,9.834-18.25a105.4,105.4,0,0,1-.064-10.99V1079.2h-36.574c0,5.654.046,11.114-.009,16.572-.132,13.2-7.291,20.283-20.521,20.289q-44.733.023-89.467,0c-13.624-.005-20.653-6.97-20.734-20.533-.032-5.426-.005-10.853-.005-16.291Zm52.645,0c0,5.344.211,10.462-.066,15.554-.228,4.206,1.416,5.379,5.5,5.348,21.794-.168,43.59-.079,65.385-.079,7.82,0,15.64-.037,23.459.02,2.4.018,4.409-.256,4.416-3.3.013-5.769,0-11.537,0-17.546Zm19.12-16.531h60.468c0-2.4.091-4.536-.019-6.658-.236-4.531-2.66-7.244-7.212-7.28q-22.98-.177-45.963,0c-4.533.033-7.023,2.66-7.255,7.219C-1089.279,1058.124-1089.189,1060.264-1089.189,1062.713Zm42.345,96.235a11.873,11.873,0,0,0-11.877-12.107,11.913,11.913,0,0,0-12.373,12.118,12.005,12.005,0,0,0,11.886,12.143A11.97,11.97,0,0,0-1046.844,1158.948Z" fill="#b68c5a"/>
    <path id="Path_65717" data-name="Path 65717" d="M-1437,1117.033c7.07-29.732,30.17-40.445,56.423-46.742,12.577-3.017,25.554-4.366,38.348-6.482,1.286-.212,2.561-.5,4.857-.95a64.174,64.174,0,0,1-26.019-24.563,85.04,85.04,0,0,1-10.071-63.08c5.479-25.1,24.669-41.018,50.421-42a89.8,89.8,0,0,1,23.752,2.042c18.008,4.24,30.724,15.5,36.169,33.21,8.943,29.081,3.96,56.079-15.474,79.717-4.753,5.78-11.349,10.043-17.163,15.06,6.467.862,13.465,1.606,20.4,2.757,15.935,2.645,31.86,5.449,46.458,12.894,15.008,7.654,26.6,18.35,30.3,35.583a57.782,57.782,0,0,1,1,11.918q.114,47.747.037,95.494c-.005,9.245-2.2,11.4-11.545,11.4q-108.234.009-216.466.075c-4.866.007-8.82-.943-11.418-5.322Zm16,99.86h34.849v-5.808q0-30,0-60.006c0-1.5-.061-3.009.083-4.5.434-4.5,3.17-7.025,7.471-7.288,4.132-.253,6.977,2.074,8.033,6.1a21.868,21.868,0,0,1,.394,5.453q.038,30.5.016,61.005v5h105.926v-5.862q0-30,.006-60.005a36.713,36.713,0,0,1,.161-4.992,7.316,7.316,0,0,1,6.991-6.683,7.22,7.22,0,0,1,8.108,5.243,19.106,19.106,0,0,1,.7,5.9q.072,30.5.03,61.005v5.458H-1214a10.836,10.836,0,0,0,.366-1.8c.005-30.835.061-61.67-.059-92.505-.033-8.47-3.888-15.378-10.02-21.054-7.386-6.837-16.27-10.943-25.823-13.612a249.828,249.828,0,0,0-116.244-4.69c-13.736,2.662-27.383,5.843-39.323,13.756-10.639,7.052-16.139,16.617-15.992,29.735.305,27.332.092,54.67.092,82.006ZM-1359.577,991c.369,19.416,4.65,35.395,16.814,48.374,14.637,15.618,35.506,16.015,50.283.6,15-15.647,19.319-35.024,16.763-55.921-2.3-18.827-12.034-30.088-28.491-33.61a69.685,69.685,0,0,0-18.838-1.226c-19.051,1.225-31.457,12.321-35.213,30.96C-1359.109,984.405-1359.315,988.757-1359.577,991Z" fill="#b68c5a"/>
    <path id="Path_65718" data-name="Path 65718" d="M-1073.972,826.054c-10.606,1.074-19.586-1.138-28.31-4.749-8.054-3.333-16.445-3.883-25.025-3.1-2.9.265-4.667,1.253-5.74,4.3-2.247,6.391-6.891,10.789-12.829,14.058-1.484.818-3.112,3.046-3.119,4.632-.165,37.662-.118,75.326-.1,112.989a13.084,13.084,0,0,0,.187,1.7c7.139,2.158,14.315,3.7,20.978,6.467a73.115,73.115,0,0,1,37.487,34.432c4,7.6.579,13.33-7.985,13.34q-58.739.066-117.478,0c-8.6-.01-11.934-5.609-8.075-13.275,10.759-21.377,30.953-35.377,58.647-40.351.069-1.456.21-3.05.21-4.644q.011-54.746.044-109.49c.006-2.945-.456-4.8-3.56-6.138-6.216-2.685-10.2-7.719-13.084-13.834-.806-1.708-3.1-3.884-4.681-3.856-7.418.133-15.127-.142-22.162,1.8-10.226,2.818-20.026,7.116-31.981,5.71,1.311,2.372,2.114,3.919,3,5.416,8.647,14.616,17.21,29.283,26.029,43.794a14.264,14.264,0,0,1,1.674,11.839,48.046,48.046,0,0,1-47,36.172c-22.441-.1-41.9-15.357-46.611-37.115a15.842,15.842,0,0,1,1.652-10.317c12.114-21.07,24.618-41.917,37.027-62.817,3.542-5.966,5.679-6.993,12.314-5.163,12.289,3.389,24.236,3.275,36.111-1.917,10.035-4.387,20.687-4.827,31.4-3.4,2.575.344,3.729-.34,5.075-2.543,10.839-17.741,34.419-17.817,45.229-.128,1.482,2.425,2.792,2.958,5.519,2.613,10.543-1.334,21.032-.9,30.915,3.42,11.857,5.179,23.81,5.379,36.109,1.978,6.758-1.869,8.814-.9,12.344,5.04,12.509,21.035,25.1,42.022,37.322,63.223a15.068,15.068,0,0,1,1.414,9.82c-4.681,21.9-23.867,37.133-46.388,37.313a48.181,48.181,0,0,1-47.3-36.466,14.131,14.131,0,0,1,1.7-11.421c8.9-14.658,17.547-29.464,26.274-44.224C-1075.915,829.782-1075.2,828.336-1073.972,826.054Zm-38,167.788c-22.361-29.28-69.749-27.938-90.283,0Zm-170.118-120.2h50.924c-8.593-14.511-16.855-28.462-25.443-42.963Zm249.781.07-25.5-43.04-25.5,43.04Zm-253.137,16.26c7.684,12.182,17.609,17.975,30.941,17.2,11.612-.68,20.1-6.451,26.4-16.894-1.536-.151-2.3-.291-3.069-.292C-1248.91,889.974-1266.64,889.977-1285.45,889.977Zm199.682.243c4.812,10.734,16.3,17.464,29,17.015,12.076-.427,20.952-6.13,27.406-17.015Zm-81.482-77.144A9.973,9.973,0,0,0-1157,823a10.264,10.264,0,0,0,9.955-10.335,10.044,10.044,0,0,0-10.361-9.849A9.814,9.814,0,0,0-1167.25,813.076Z" fill="#b68c5a"/>
  </g>
</svg>
