<svg xmlns="http://www.w3.org/2000/svg" width="508" height="492" viewBox="0 0 508 492">
  <g id="Family_law_-_ic" data-name="Family  law - ic" transform="translate(1409 -144)">
    <path id="Path_65699" data-name="Path 65699" d="M-1409,551c.94-2.623,1.775-5.289,2.837-7.862,4.606-11.164,12.8-18.456,24.255-22.1,14.9-4.737,29.831-9.362,44.709-14.157,1.528-.492,3.946-1.825,3.936-2.745-.023-2.012-.771-4.688-2.22-5.907-12.037-10.121-17.7-22.925-17.554-38.588.163-17.326,0-34.655.046-51.983.062-23.358,16.279-39.591,39.623-39.65,19.827-.049,39.655-.017,59.482-.006,6.462,0,8.226,1.282,9.6,7.657,3.475,16.155-.806,30.08-12.944,41.233a10.626,10.626,0,0,0-3.838,8.958c.19,11.827.111,23.658.058,35.488-.065,14.7-5.8,26.725-16.886,36.39a9.1,9.1,0,0,0-2.8,6.111c-.011,1.075,2.8,2.619,4.58,3.2,13.275,4.351,26.52,8.832,39.952,12.648,13.5,3.835,23.591,11.252,29.04,25.082,9.573-2.362,19.058-4.593,28.42-7.254.628-.179,1.193-4.674.333-5.375-12.365-10.077-15.279-23.447-14.725-38.51.471-12.812.048-25.656.11-38.485.088-18.275,12.9-31.046,31.2-31.14q14.994-.076,29.99,0c11.823.067,21.274,6.517,25.15,17.05,3.828,10.408.877,20.95-7.713,29.008a9.181,9.181,0,0,0-2.52,5.849c-.278,8.322-.118,16.658-.119,24.989a38.791,38.791,0,0,1-13.373,30.052,7.293,7.293,0,0,0-2.335,4.882c.013.856,2.535,2.031,4.088,2.446,8.341,2.228,16.733,4.263,25.76,6.528,5.949-16.365,19.151-23.505,35.624-26.772a24.524,24.524,0,0,0-1.814-2.4c-6.846-6.723-10-14.889-9.048-24.411,2.263-22.7,4.8-45.368,7.031-68.07,1.442-14.69,6.57-27.749,16.112-39.045a68.222,68.222,0,0,1,72.42-20.984c26.133,8.195,45.036,31.946,47.567,59.143q2.94,31.58,6.688,63.083c1.441,12.255-.267,23.258-10.726,32.089,3.795,1.267,6.854,2.357,9.955,3.311,14.415,4.433,23.54,13.863,27.157,28.56A7.708,7.708,0,0,0-901,551v85h-508Zm340,72.638h124c0-13.509.043-26.659-.026-39.807-.022-4.185,1.212-7.338,5.85-7.74,3.864-.335,6.135,2.673,6.164,7.886.042,7.665.011,15.331.011,23v16.786h20v-5.091q0-29.5-.005-58.991c-.013-14.38-6.338-23.206-19.929-27.59-13.454-4.341-26.951-8.55-40.44-12.784a34.021,34.021,0,0,0-3.655-.741c-5.091,14.067-13.239,21.25-24.9,21.35-14.508.125-23.014-7.892-27.128-21.832-16.51,5.344-32.853,10.351-48.976,15.992-6.485,2.269-10.732,7.478-13.169,14.18,16.559,8.789,23.019,22.592,22.288,40.587C-1069.378,600.3-1069,611.8-1069,623.638Zm-172,.125V613.182c0-9.5.057-19-.012-28.494-.122-16.615,7.527-28.544,22.186-36.5a25.069,25.069,0,0,0-15.126-15.059c-3.566-1.369-7.263-2.4-10.912-3.549-12-3.78-24.008-7.545-36.216-11.38-3.514,12.792-11.177,20.848-24.187,21.6-14.948.868-23.622-7.736-27.83-21.606-16.094,5.107-31.865,9.818-47.423,15.152-10.246,3.512-16.418,13.205-16.457,24.495-.072,20.829-.026,41.658-.01,62.487,0,1.111.173,2.222.263,3.3H-1377c0-13.516.043-26.666-.025-39.815-.022-4.187,1.224-7.334,5.862-7.726,3.864-.326,6.124,2.677,6.151,7.9.041,8,.011,16,.011,23.994v15.779Zm140-.171h20.013c0-13.736.073-27.064-.021-40.392-.088-12.358-7.505-22.046-19.474-25.294-9.953-2.7-20-5.039-29.974-7.678-2.688-.711-4.013-.052-5.489,2.435-8.973,15.12-29.12,15.151-38.056.07-1.441-2.431-2.678-3.269-5.444-2.531-9.965,2.657-20.017,4.99-29.971,7.684-11.986,3.243-19.455,12.926-19.556,25.24-.1,12.5-.035,25,0,37.494a21.177,21.177,0,0,0,.426,3.086h19.077a5.153,5.153,0,0,0,.4-1.192q.063-6.246.077-12.495c.014-7.11,1.829-10.072,6.134-9.972,4.176.1,5.862,2.892,5.867,9.741,0,4.611,0,9.222,0,13.863h84c0-5.661.042-10.975-.013-16.288-.042-4.052,1.493-6.885,5.8-7.275,3.72-.336,6.124,2.595,6.188,7.357C-1100.946,612.751-1101,618.058-1101,623.592Zm51.452-169.228.554-.057c0-2.665-.028-5.331.005-8,.243-19.587,13.623-34.994,32.985-38,7.266-1.127,9.025-.129,11.708,6.647a32.588,32.588,0,0,0,30.557,21.028c3.5.052,7-.07,10.5.056,3.71.133,6.1,2.178,6.146,5.876.1,8.49.441,17.04-.384,25.461-1.22,12.469-7.3,22.59-16.915,30.707-1.46,1.232-2.264,3.854-2.324,5.864-.028.938,2.317,2.3,3.814,2.861,3.73,1.4,7.87,1.927,11.343,3.758,9.134,4.815,21.5-4.925,21.7-14.728a76.825,76.825,0,0,0-.41-9.471c-2.2-21.2-4.557-42.378-6.713-63.58-2.826-27.793-25.944-49.754-53.552-50.71-28.465-.986-53.188,18.547-57.518,46.457-2.7,17.419-4.029,35.053-5.919,52.6-.8,7.448-1.852,14.9-2.108,22.371-.436,12.716,10.237,20.547,22.266,16.744,3.647-1.153,7.366-2.112,10.93-3.479,1.459-.559,3.609-1.923,3.651-2.99a7.5,7.5,0,0,0-2.106-5.456c-8.1-6.713-13.913-14.93-16.159-25.171C-1048.85,467.036-1048.913,460.637-1049.55,454.364ZM-1273.127,428c-11.689,0-22.853.673-33.907-.142-22.175-1.634-35.874,9.9-34.061,35.308,1.26,17.676,15.209,32.248,32.808,32.8,18.047.564,33.862-12.828,35-30.754C-1272.472,452.457-1273.127,439.609-1273.127,428Zm257.866-7.431c-12.523,2.3-21.28,12.2-21.674,24.356-.2,6.321-.255,12.665.034,18.98.935,20.4,20.389,35.613,40.293,31.339,21.728-4.666,30.934-23.382,26.837-47.151C-990.595,448.538-1005.877,439.605-1015.261,420.569Zm-240.5-40.467c-20.842,0-41.293-.348-61.725.14a23.769,23.769,0,0,0-22.443,19.46c-1.44,8.32-1.008,16.964-1.481,26.987,10.6-9.486,21.812-11.232,33.777-10.749,7.638.309,15.31.3,22.946-.032,11.725-.513,20.58-6.082,26.087-16.47A27.316,27.316,0,0,0-1255.759,380.1Zm126.687,95.9c-9.014,0-17.5.446-25.932-.088-21.148-1.339-27.458,8.316-25.978,27.767a26.264,26.264,0,0,0,25.767,24.305c13.554.09,25.327-10.41,26.05-23.9C-1128.677,494.979-1129.072,485.822-1129.072,476Zm-51.868-6.082c7.588-5.31,15.217-6.152,23.183-5.968q13.479.312,26.971-.03a13.882,13.882,0,0,0,13.749-13.692,13.852,13.852,0,0,0-13.787-14.148c-10.985-.223-21.983-.253-32.966,0a17.536,17.536,0,0,0-17.087,16.414C-1181.219,457.949-1180.94,463.441-1180.94,469.918Zm164.061,37.178c-.431,7.087-.793,14.669,7.293,19.1A12.979,12.979,0,0,0-994.6,525.06c6.515-4.923,6-11.813,5.353-17.964Zm-276.294,0h-27.632c-.607,6.441-1.01,13.643,6.016,18.424a13.014,13.014,0,0,0,15.062.316C-1292.23,521.157-1292.594,513.759-1293.173,507.1Zm128.413,32.432c-.832,4.486.526,8.288,4.578,10.894a9.048,9.048,0,0,0,10.337.016c4.06-2.6,5.415-6.4,4.62-10.91Z" fill="#b68c5a"/>
    <path id="Path_65700" data-name="Path 65700" d="M-1151,144c8.847,3.512,14.235,9.439,14.13,19.528a4.407,4.407,0,0,0,2.667,3.251q19.739,4.251,39.594,7.945c1.265.233,3.381-.985,4.231-2.16,8.47-11.707,23.607-11.516,30.967.788,1.589,2.657,3.413,2.424,5.69,2.72,2.369.308,5.14.611,6.834,2.009,1.257,1.038,2.077,4.456,1.3,5.681a10.754,10.754,0,0,1-6.059,4.074c-3,.766-5.965-.378-8.4,3.463-2.414,3.8-2.339,6.487-.771,10.293,7.408,18,14.772,36.017,21.627,54.228a26.864,26.864,0,0,1,1.211,13.482c-3.284,18.74-20.132,31.61-39.22,30.631a38.019,38.019,0,0,1-35.571-34.448,20.192,20.192,0,0,1,1.463-8.677c7.529-19.2,15.274-38.323,22.938-57.474,1.7-4.258-2.69-11.726-7.169-12.569-12.9-2.429-25.781-4.982-38.673-7.468a24.965,24.965,0,0,0-2.537-.225V319.5c21.377,2.97,26.881,7.89,27.952,25.145,7.641,3.046,13.583,8.156,15.117,16.786a54.345,54.345,0,0,1,.531,12.913c-.3,4.63-3.731,5.7-7.868,5.681-17.663-.067-35.327-.028-52.991-.028q-27.246,0-54.491-.008c-6.7-.009-8.184-1.853-8.557-8.65-.686-12.466,3.472-21.86,15.674-26.481,2.236-18.541,6.479-22.376,28.133-25.353V179.051c-8.557,1.844-16.955,3.728-25.389,5.436-3.581.725-7.3,1.778-10.847,1.457-7.009-.633-9.883,4.028-12.659,8.844-.613,1.063,0,3.126.56,4.529,7.363,18.552,14.672,37.129,22.336,55.557a25.026,25.026,0,0,1,1.189,16.039c-4.191,17.787-21.313,30.323-39.754,28.99-18.507-1.338-33.924-16.654-35.012-35.044a18.784,18.784,0,0,1,1.345-7.723c7.621-19.346,15.423-38.621,23.147-57.926,1.893-4.73-2.463-11.122-7.585-11.211a26.185,26.185,0,0,1-3.493-.095c-3.406-.521-5.53-2.5-5.479-6.006.05-3.482,2.206-6.036,5.6-5.727,5.112.465,7.735-1.639,10.727-5.662,7.028-9.45,21.45-8.56,28.259,1.271,1.434,2.07,2.5,3.642,5.422,3.031,12.688-2.653,25.427-5.067,38.091-7.83,1.445-.315,3.619-2.272,3.615-3.462-.03-10.092,5.322-16.015,14.175-19.519Zm1.848,175.772c.062-1.365.145-2.343.145-3.32q.01-76.213,0-152.425c0-1,.331-2.393-.187-2.921-1.813-1.848-3.839-4.535-5.962-4.707-1.764-.142-4.065,2.581-5.561,4.481-.748.95-.278,2.9-.278,4.392Q-1161,239.985-1161,314.7v5.073ZM-1258,255.7h46.021c-7.59-18.917-15.006-37.4-22.421-55.876l-1.335.242Zm183.719-55.649-1.439-.047c-7.4,18.511-14.8,37.022-22.3,55.782h46.064Zm-130.479,167.675h99.551c.047-7.626-3.554-11.664-10.669-11.686q-39.175-.119-78.352.005C-1201.307,356.063-1204.931,360.223-1204.761,367.721Zm83.6-23.918c-.127-7.477-3.532-11.658-9.876-11.727q-23.933-.261-47.87,0c-6.619.072-10.216,4.655-9.7,11.729Zm-138.675-75.57a25.319,25.319,0,0,0,25.671,19.739c11.618-.327,21.914-8.746,23.9-19.739Zm159.927-.048a25.552,25.552,0,0,0,26.344,19.774c11.419-.58,21.6-9.171,23.256-19.774Zm-135.163-92.233c-3.3.485-5.763,2.213-5.812,5.968a5.461,5.461,0,0,0,5.445,5.933c3.693.253,6.072-1.9,6.3-5.553C-1228.916,178.576-1231.253,176.614-1235.073,175.952Zm160,.035c-3.578.505-5.9,2.4-5.81,6.146a5.447,5.447,0,0,0,5.652,5.728c3.689.105,6.006-2.094,6.088-5.774C-1069.058,178.36-1071.443,176.473-1075.07,175.987Z" fill="#b68c5a"/>
  </g>
</svg>
