<svg xmlns="http://www.w3.org/2000/svg" width="442.48" height="452" viewBox="0 0 442.48 452">
  <g id="Property-ic" transform="translate(2581.064 -829)">
    <path id="Path_65702" data-name="Path 65702" d="M-2152.958,1281H-2578c-1.019-2.794-2.918-5.585-2.927-8.383-.176-53.3-.13-106.6-.13-159.9q0-137.667.128-275.334c0-2.795,1.91-5.587,2.929-8.38h341.035c.955,2.857,2.736,5.713,2.742,8.572q.233,105.4.008,210.8c-.011,4.587,1.462,7.086,5.3,9.413,15.785,9.58,31.371,19.488,47.022,29.288,11.986,7.505,24.02,14.937,35.913,22.586,6.075,3.907,8.664,10.4,6.815,16.858-1.881,6.568-6.571,10.189-13.246,11.294-1.094.181-2.212.221-3.661.358v5.707q0,50.2-.014,100.4c0,2.956-.438,5.7,3.505,7.062,1.268.437,2.136,3.582,2.243,5.54a128.756,128.756,0,0,1-.015,16.469C-2150.551,1275.947-2152.05,1278.452-2152.958,1281Zm-417.9-441.936v431.683h185.041c3.7-6.98-4.142-16.794,6.589-21.412V1138.158c-9.618-1.106-15.278-5.252-16.679-12.066-1.5-7.29,1.526-13.041,9.516-18.041,36.278-22.7,72.606-45.323,108.8-68.161,7.062-4.456,13.528-4.686,20.394.038,4.051,2.787,8.357,5.205,12.886,8V839.064Zm404.7,410.743c.078-.986.194-1.781.195-2.576.01-36.98.057-73.96-.134-110.938-.009-1.785-1.706-4.219-3.319-5.241-31.365-19.847-62.859-39.489-94.237-59.315-2.795-1.765-4.716-1.864-7.549-.075q-46.86,29.6-93.929,58.862c-3.12,1.938-4.082,4.036-4.069,7.595.132,35.48.08,70.961.08,106.442v5.184h13.964v-5.717q0-36.979.007-73.959c0-6.708,1.157-7.873,7.811-7.88q27.239-.03,54.476,0c7.1.006,8.17,1.038,8.175,8.033q.027,36.979.008,73.959v5.629Zm-178.868-77.436v77.435h50.307v-77.435Zm196.385-50.7c-.878-1-2.1-3.232-3.979-4.415q-55.356-34.83-110.824-69.482c-2.923-1.836-5.347-1.878-8.272-.04q-55.377,34.8-110.846,69.463c-3.181,1.99-5.394,4.5-3.235,8.161,2.368,4.011,5.621,2.882,8.983.774,34.549-21.653,69.181-43.173,103.672-64.917,4.131-2.6,7.285-2.553,11.347.027,22.335,14.191,44.811,28.158,67.243,42.194,12.273,7.68,24.532,15.384,36.848,22.994C-2153.275,1129.171-2149.083,1127.508-2148.642,1121.675Zm-225.938,138.519v10.446h214.232v-10.446Z" fill="#b68c5a"/>
    <path id="Path_65703" data-name="Path 65703" d="M-2361.2,901.359h-31.385v91.617c3.965,0,7.9-.074,11.835.015,9.817.221,16.878,7.277,16.8,16.7-.077,9.193-7.065,16.191-16.7,16.262q-26.993.2-53.987.007c-9.685-.059-17.124-7.4-17.127-16.533,0-9.179,7.346-16.245,17.175-16.44,3.794-.076,7.592-.012,11.688-.012V901.451h-31.506c1.863,3.678,3.469,6.9,5.116,10.091,5.412,10.5,10.65,21.1,16.35,31.442a15.345,15.345,0,0,1,1.332,12.421c-3.094,10.618-10.012,17.358-21.009,18.7a87.654,87.654,0,0,1-20.406-.016c-12.021-1.376-21.189-11.671-21.816-23.728a11.778,11.778,0,0,1,1.506-5.6c6.722-13.194,13.574-26.321,20.368-39.478.588-1.139,1.047-2.344,1.852-4.164-2.194,0-3.792.029-5.389,0-9.337-.2-14.259-5.55-14.257-15.469,0-9.777,5.046-15.445,14.276-15.526,15.662-.138,31.327.062,46.987-.166a10.247,10.247,0,0,0,6.319-2.7c9-8.648,22.021-8.676,31.025-.109a11,11,0,0,0,6.775,2.8c15.326.245,30.658.088,45.988.147,7.058.027,12.235,2.928,13.755,8.611,1.745,6.525,2.27,13.234-3.134,18.742-3.638,3.709-8.293,3.822-13.025,3.7a19.1,19.1,0,0,0-2.427.312c.8,1.762,1.408,3.239,2.135,4.653,6.393,12.429,13.02,24.744,19.069,37.338a19.318,19.318,0,0,1,1.582,10.853,23.926,23.926,0,0,1-21.04,19.8,94.748,94.748,0,0,1-20.411,0c-12.061-1.354-21.173-11.49-21.933-23.622a11.547,11.547,0,0,1,1.431-5.617c6.791-13.345,13.718-26.62,20.59-39.924C-2362.281,903.946-2361.875,902.89-2361.2,901.359Zm-46.265-10.235c22.313,0,44.627-.074,66.939.066,4.18.027,6.084-1.175,6.074-5.635-.01-4.437-1.875-5.7-6.074-5.658-16.484.165-32.971.008-49.457.115-3.468.023-5.845-.96-7.906-3.982-5.116-7.5-14.439-7.525-19.5-.031-2.055,3.039-4.405,4.035-7.875,4.012-16.319-.106-32.639.025-48.958-.1-4.041-.03-6.714.518-6.732,5.551-.018,4.9,2.367,5.742,6.555,5.718C-2452.087,891.058-2429.774,891.124-2407.461,891.124Zm-4.988,10.289V992.7h9.328V901.413Zm4.965,114.711c8.5,0,17,.037,25.495-.014,5.375-.032,8.216-2.336,8.261-6.512.045-4.222-2.8-6.646-8.11-6.659q-25.743-.06-51.487,0c-5.168.01-8.34,2.545-8.393,6.511s3.133,6.627,8.238,6.659C-2424.815,1016.163-2416.149,1016.122-2407.484,1016.124Zm-74.245-72.365h38.039l-19.059-36.8C-2469.283,919.629-2475.342,931.376-2481.729,943.759Zm128.993-36.843-18.93,36.824h37.976Zm-131.191,47.173c4.288,9.729,11.386,12.276,28.291,10.663,6.939-.662,11.88-4.535,13.384-10.663Zm110.357-.007c1.889,6.157,6.4,10.032,13.062,10.543a100.706,100.706,0,0,0,15.447,0c6.737-.523,11.5-4.694,12.779-10.542Z" fill="#b68c5a"/>
    <path id="Path_65704" data-name="Path 65704" d="M-2441.1,1059.964q-51.225,0-102.449-.054a12.33,12.33,0,0,1-6.091-1.385c-1.041-.624-1.812-3.022-1.468-4.287a6.866,6.866,0,0,1,3.373-3.773c1.364-.678,3.253-.377,4.911-.377q101.951-.02,203.9-.01c.833,0,1.666-.006,2.5.011,3.215.063,5.714,1.273,5.762,4.818.052,3.826-2.515,5.064-5.988,5.062q-31.234-.023-62.469-.005Z" fill="#b68c5a"/>
    <path id="Path_65705" data-name="Path 65705" d="M-2470.761,1202.036q-36.2,0-72.4-.006c-1.5,0-3.343.452-4.406-.248-1.616-1.064-3.661-2.919-3.716-4.5-.055-1.56,1.918-3.469,3.428-4.7.842-.685,2.555-.386,3.875-.387q73.4-.021,146.8,0c1.318,0,3.065-.262,3.86.445,1.449,1.287,3.281,3.268,3.184,4.851-.095,1.546-2.184,3.309-3.809,4.306-1.1.677-2.917.23-4.414.231Q-2434.562,1202.041-2470.761,1202.036Z" fill="#b68c5a"/>
    <path id="Path_65706" data-name="Path 65706" d="M-2470.529,1249.25q-35.981,0-71.96-.007c-1.663,0-3.643.446-4.91-.29-1.625-.944-3.654-2.845-3.7-4.388s1.863-3.577,3.434-4.591c1.213-.782,3.229-.4,4.889-.4q72.708-.021,145.418-.005c1.5,0,3.36-.437,4.406.276,1.685,1.15,3.928,3.111,3.9,4.689s-2.367,3.421-4.1,4.505c-1.089.682-2.92.2-4.418.2Q-2434.05,1249.253-2470.529,1249.25Z" fill="#b68c5a"/>
    <path id="Path_65707" data-name="Path 65707" d="M-2480.461,1144.924c21.153,0,42.307-.077,63.458.117,2.164.019,5.158,1.069,6.282,2.678,1.958,2.8.384,5.51-2.846,6.56a17.932,17.932,0,0,1-5.431.454q-61.708.033-123.419.017c-.833,0-1.666,0-2.5-.008-3.532-.048-6.549-1.069-6.393-5.238.145-3.872,3.016-4.614,6.39-4.606Q-2512.689,1144.974-2480.461,1144.924Z" fill="#b68c5a"/>
    <path id="Path_65708" data-name="Path 65708" d="M-2477.3,1107.25q-32.75,0-65.5-.009c-1.663,0-3.616.4-4.913-.326-1.513-.845-3.446-2.76-3.388-4.133.072-1.675,1.709-3.784,3.262-4.743,1.369-.846,3.555-.46,5.38-.461q65.249-.025,130.5.021c3.807.005,9.025-1.106,8.914,5-.1,5.717-5.088,4.61-8.756,4.62C-2433.635,1107.278-2455.468,1107.25-2477.3,1107.25Z" fill="#b68c5a"/>
    <path id="Path_65709" data-name="Path 65709" d="M-2225.912,1219.964c-10.167,0-20.334.032-30.5-.013-5.556-.025-6.964-1.286-6.993-6.7-.082-14.822.01-29.645-.049-44.468-.019-4.606,2.072-6.646,6.685-6.632,21,.066,42,0,63,.05,5.223.013,6.771,1.643,6.786,6.959q.063,22,0,44c-.017,5.225-1.608,6.764-6.921,6.788C-2204.578,1220-2215.245,1219.964-2225.912,1219.964Zm-27.569-34.14h23.094V1172.4h-23.094Zm23.148,24V1196.3h-23.039v13.521Zm10.336-23.986h22.81v-13.515H-2220Zm.08,10.382v13.566h22.76V1196c-6.595,0-12.889-.01-19.183.009C-2217.467,1196.013-2218.595,1196.137-2219.917,1196.218Z" fill="#b68c5a"/>
    <path id="Path_65710" data-name="Path 65710" d="M-2240.295,1120.649a27.457,27.457,0,0,1-27.548,27.153,27.526,27.526,0,0,1-26.924-27.3,27.475,27.475,0,0,1,27.566-27.132A27.4,27.4,0,0,1-2240.295,1120.649Zm-27.461,17.25a17.624,17.624,0,0,0,17.58-17.338,17.7,17.7,0,0,0-17.13-17.325,17.581,17.581,0,0,0-17.537,16.862A17.566,17.566,0,0,0-2267.756,1137.9Z" fill="#b68c5a"/>
    <path id="Path_65711" data-name="Path 65711" d="M-2302.855,1211.595c0,2.166.616,4.593-.164,6.427-.822,1.932-2.8,4.251-4.606,4.591-1.295.243-4.337-2.351-4.534-3.936a61.987,61.987,0,0,1-.034-14.923c.194-1.62,3.145-4.283,4.438-4.069,1.825.3,4,2.569,4.707,4.483C-2302.235,1206.366-2302.859,1209.1-2302.855,1211.595Z" fill="#b68c5a"/>
  </g>
</svg>
