<svg xmlns="http://www.w3.org/2000/svg" width="384" height="384" viewBox="0 0 384 384">
  <g id="Societies_-ic" data-name="Societies -ic" transform="translate(731 -916)">
    <path id="Path_65719" data-name="Path 65719" d="M-347,1253.022V1300H-731v-46.978c2.816-4.093,6.7-5.386,11.591-5.078,5.4.339,10.834.077,16.14.077V1148.015c-5.553,0-10.863-.264-16.133.077-4.9.317-8.77-1.007-11.6-5.077v-38c3.656-6.327,10.232-4.689,15.987-5.184,0-4.431.023-8.255,0-12.079-.187-27.6,18.085-50.1,45.093-55.7,4.4-.911,8.09-.815,12.1,2.012a36.92,36.92,0,0,0,12.74,5.44c11.832,2.732,23.516,1.954,32.979-6.447a70.872,70.872,0,0,1,36.821-17.605,9.728,9.728,0,0,1,6.39,1.412c18.28,12.438,40.735,12.5,59.14.155a9.739,9.739,0,0,1,6.324-1.459,66.9,66.9,0,0,1,35.433,17.125,28.86,28.86,0,0,0,8.31,5.356c14.132,5.753,27.609,4.088,40.56-3.9,2.157-1.331,5.374-2.232,7.753-1.717,24.092,5.214,40.137,19.515,46.41,43.541,1.98,7.584,1.867,15.715,2.753,23.977,5.388.046,11.5-.864,15.206,5.068v38c-2.837,4.048-6.694,5.393-11.6,5.079-5.4-.346-10.832-.079-16.131-.079v100.006c5.555,0,10.866.267,16.137-.078C-353.691,1247.624-349.825,1248.951-347,1253.022Zm-339.768-5.345H-391.4V1148.27h-295.37Zm223.732-147.857c0-6.991.127-13.475-.023-19.953a50.079,50.079,0,0,0-36.174-46.933,10.244,10.244,0,0,0-6.919.672c-22.2,11.663-44.249,11.675-66.4-.129a9.977,9.977,0,0,0-6.5-.948c-10.485,2.621-19.026,8.365-26.054,16.639-12.824,15.1-9.68,33-9.739,50.652Zm-251.731,183.861H-363.4v-19.405H-714.767Zm0-152.01h351.361v-15.4H-714.767Zm83.059-31.878c.813-14.663,1.6-28.926,2.4-43.282a51.455,51.455,0,0,1-31.59-5.878c-5.085-2.817-9.491-2.865-13.939-.171-5.066,3.068-10.3,6.238-14.432,10.393-10.8,10.869-10.466,24.769-9.406,38.938Zm252.686.037c0-4.014.068-7.5-.011-10.975a42.223,42.223,0,0,0-29.023-39.086c-1.764-.568-4.26-1.016-5.666-.21a59.733,59.733,0,0,1-35.931,7.636c1.206,14.212,2.4,28.333,3.617,42.635Z" fill="#b68c5a"/>
    <path id="Path_65720" data-name="Path 65720" d="M-534,916c4.138,1.109,8.393,1.9,12.394,3.38,19.865,7.337,32.484,27.739,30.445,48.9a48.055,48.055,0,0,1-40.161,42.981,48.005,48.005,0,0,1-53.584-33.216c-6.932-23.048,4.183-48.152,25.759-57.495,4.8-2.081,10.085-3.061,15.147-4.547Zm-36.98,47.447c-.075,18.319,13.91,32.47,32.047,32.427,17.961-.043,31.78-13.932,31.908-32.07.123-17.222-14.376-31.716-31.8-31.791C-556.291,931.937-570.909,946.229-570.98,963.447Z" fill="#b68c5a"/>
    <path id="Path_65721" data-name="Path 65721" d="M-636.952,1027.992c-22.892.024-42.015-18.832-42.028-41.442-.014-23.914,18.236-42.363,41.929-42.387,23.736-.023,41.988,18.342,42.028,42.289C-594.984,1009.066-614.063,1027.967-636.952,1027.992Zm25.927-42.179c.065-13.959-11.681-25.712-25.784-25.8-14.13-.088-26.026,11.462-26.17,25.406-.153,14.92,11.227,26.487,26.026,26.451C-622.326,1011.837-611.092,1000.547-611.025,985.813Z" fill="#b68c5a"/>
    <path id="Path_65722" data-name="Path 65722" d="M-444.865,1027.992c-22.9.061-42.053-18.746-42.113-41.356-.063-23.914,18.144-42.4,41.84-42.473,23.732-.077,42.022,18.252,42.115,42.2C-402.936,1008.976-421.988,1027.93-444.865,1027.992Zm25.841-42.238c.033-13.959-11.736-25.679-25.844-25.739-14.126-.061-26,11.518-26.112,25.466-.122,14.918,11.29,26.463,26.087,26.391C-430.267,1011.8-419.059,1000.485-419.024,985.754Z" fill="#b68c5a"/>
    <path id="Path_65723" data-name="Path 65723" d="M-539,1228.02q-58.248,0-116.495,0c-9.184,0-11.5-2.319-11.5-11.5-.007-14.167-.029-28.334.01-42.5.019-7.189,2.8-9.989,9.983-9.991q117.995-.025,235.989,0c7.182,0,9.983,2.809,10,9.98q.062,21.75.006,43.5c-.013,7.837-2.668,10.5-10.5,10.506Q-480.251,1228.035-539,1228.02Zm111.776-47.65H-650.586v31.384h223.363Z" fill="#b68c5a"/>
  </g>
</svg>
