<svg xmlns="http://www.w3.org/2000/svg" width="438.043" height="504" viewBox="0 0 438.043 504">
  <g id="Trademarks" transform="translate(219.033 799)">
    <path id="Path_65743" data-name="Path 65743" d="M-169-799H143.026c3.259,2.163,4,5.252,3.985,9.032-.127,27.818-.087,55.636-.1,83.454q-.068,103.443-.047,206.887c0,2.214.711,5.133,2.205,6.533,20.583,19.278,22.725,45.673,5.452,68.168-1.873,2.439-3.983,5.483-4.115,8.333-.488,10.571-.194,21.179-.194,32.263,5.349,0,10.314-.039,15.278.007,20.529.188,33.922,13.6,34.181,34.231.052,4.137.008,8.276.008,12.471,2.128.63,3.884,1.045,5.564,1.665a21.082,21.082,0,0,1,12.993,25.467c-2.341,8.427-8.5,12.738-16.2,15.489H34.019c-.91-.379-1.81-.784-2.732-1.132-9.066-3.421-14.524-11.356-14.273-20.769.244-9.192,6.377-16.895,15.694-19.694,1.079-.324,2.176-.585,3.3-.885v-13.395H29.761q-119.257,0-238.515,0c-9.35,0-10.27-.924-10.27-10.308q0-190.748,0-381.5c0-1-.025-2,.006-3,.163-5.138,2.164-7.224,7.364-7.26,11.166-.076,22.334-.025,33.5-.025h5.6c0-12.76-.24-24.76.163-36.738C-172.287-792.836-170.183-795.9-169-799ZM88.319-677.667h-6c-16.334,0-32.669.027-49-.016-6.585-.017-8.274-1.741-8.284-8.316q-.039-24.75-.009-49.5v-5.187H-206.7v377.811H-35.949q35,0,70,.012c2.364,0,4.194-.015,5.576-2.8,6.21-12.522,16.518-18.712,30.532-18.666,5.126.016,10.253,0,15.909,0,0-8.5-.264-16.467.079-24.406a26.389,26.389,0,0,0-6.1-18.384,47.285,47.285,0,0,1,5-63.9,9.445,9.445,0,0,0,3.318-7.745q-.108-86.5-.052-173Zm46.234-109.072h-294.8v33.775h6.314q90.728,0,181.455-.071a13.033,13.033,0,0,1,10.139,4.123q28.827,29.137,57.982,57.949a14.583,14.583,0,0,1,4.768,11.377q-.213,85.973-.092,171.945v5.721c6.056-.815,11.6-2.091,17.151-2.159s11.132,1.071,17.082,1.723Zm3.419,402.07c0-8.7.248-17.022-.067-25.321a33.727,33.727,0,0,1,8.208-23.9,33.6,33.6,0,0,0,7.451-28.068,35.994,35.994,0,0,0-29.118-29.835,36.185,36.185,0,0,0-37.258,16.875c-7.94,13.108-6.91,29.225,3.089,41.5a32.766,32.766,0,0,1,7.85,22.514c-.25,8.626-.055,17.264-.055,26.228Zm49.435,47.106c0-5.747.446-11.233-.1-16.62-1.044-10.389-8.927-17.94-19.32-18.009-33.309-.221-66.621-.155-99.931-.029-7.825.029-13.658,4.036-17.242,10.911-3.978,7.631-2.185,15.76-2.293,23.747ZM117.512-307q38.229,0,76.458,0c8.77,0,13.2-3.2,13.049-9.4-.147-6-4.332-8.848-13.038-8.849q-75.959-.006-151.917,0a43.893,43.893,0,0,0-4.99.142,8.916,8.916,0,0,0-8.048,8.7,9.1,9.1,0,0,0,7.544,9.216,29.117,29.117,0,0,0,4.984.185Q79.533-306.992,117.512-307ZM78.062-689.922,37.319-730.643v40.721Z" fill="#b68c5a"/>
    <path id="Path_65744" data-name="Path 65744" d="M-59.619-539.573a80.652,80.652,0,0,1-80.3-81.161c.26-43.937,36.681-80.038,80.625-79.918a80.592,80.592,0,0,1,80.418,81.5A80.434,80.434,0,0,1-59.619-539.573Zm.241-12a68.4,68.4,0,0,0,68.511-68.2,68.588,68.588,0,0,0-68.422-68.883c-37.494-.094-68.52,30.781-68.626,68.291A68.654,68.654,0,0,0-59.378-551.572Z" fill="#b68c5a"/>
    <path id="Path_65745" data-name="Path 65745" d="M-59.173-430.964q-41,0-82,0c-1.5,0-3.468.532-4.4-.21-2-1.6-4.617-3.765-4.8-5.883-.149-1.769,2.589-4.084,4.494-5.6.948-.753,2.9-.3,4.391-.3q82.25-.015,164.5,0c1.331,0,3.121-.45,3.9.227,1.941,1.679,4.74,3.9,4.716,5.882-.024,1.956-2.872,4.154-4.9,5.69-.965.731-2.907.192-4.406.192Q-18.424-430.961-59.173-430.964Z" fill="#b68c5a"/>
    <path id="Path_65746" data-name="Path 65746" d="M-59.178-477.077q40.748,0,81.5,0c1.5,0,3.374-.517,4.417.185,2,1.345,4.914,3.4,4.9,5.146-.018,2.14-2.357,4.587-4.261,6.251-.987.862-3.2.4-4.859.4q-81.745.021-163.493.012c-.5,0-1,.006-1.5,0-5.223-.085-8.174-2.224-8.248-5.975-.076-3.839,2.761-6.011,8.051-6.014Q-100.927-477.1-59.178-477.077Z" fill="#b68c5a"/>
    <path id="Path_65747" data-name="Path 65747" d="M-60-396.818q-40.494,0-80.988,0c-1.5,0-3.365.5-4.418-.2-2.009-1.336-4.775-3.255-4.951-5.145-.178-1.911,2.062-4.487,3.888-5.988,1.165-.957,3.5-.638,5.314-.639q81.738-.041,163.475-.01c1.658,0,3.826-.434,4.863.42,1.951,1.6,4.561,4.083,4.443,6.05-.116,1.916-3.089,3.986-5.224,5.325-1.2.756-3.249.19-4.915.19Q-19.253-396.815-60-396.818Z" fill="#b68c5a"/>
    <path id="Path_65748" data-name="Path 65748" d="M-58.98-511.333q40.24,0,80.481.008c1.831,0,4.041-.512,5.4.318,2.017,1.231,4.822,3.51,4.747,5.231-.093,2.121-2.529,4.459-4.486,6.047-1.043.846-3.209.385-4.868.385q-81.731.02-163.461.007a28.825,28.825,0,0,1-3.991-.126c-3.443-.488-5.583-2.587-5.5-6.012.082-3.374,2.13-5.59,5.7-5.742,3.66-.156,7.329-.111,10.994-.112Q-96.471-511.339-58.98-511.333Z" fill="#b68c5a"/>
    <path id="Path_65749" data-name="Path 65749" d="M-17.9-626.477c-8.487,10.237-16.919,11.281-25.279.112l-.969,1.052c0,2.182,0,4.363,0,6.545-.012,5.663.137,11.333-.1,16.987-.151,3.585-2.14,6-6.013,5.959-3.531-.035-5.748-2.028-5.782-5.552-.121-12.491-.24-24.988.059-37.472.125-5.205,5.393-7.171,9.965-3.911,5.132,3.659,10.053,7.611,15.213,11.548,5.019-3.815,9.586-7.718,14.611-10.9,2.077-1.315,5.6-2.124,7.606-1.231,1.735.773,3.1,4.254,3.165,6.58.32,11.15.2,22.316.117,33.475-.039,5-2.237,7.642-6.079,7.473-4.818-.211-5.958-3.437-5.9-7.576.055-3.664.008-7.329.007-10.994v-10.476Z" fill="#b68c5a"/>
    <path id="Path_65750" data-name="Path 65750" d="M-84.027-632.483c0,10.073.026,19.363-.01,28.653-.02,5.39-2.03,8.019-5.994,8.034-3.991.016-5.969-2.567-5.986-7.983-.031-9.292-.009-18.583-.009-28.7-3.763,0-7.185.108-10.6-.029-3.785-.152-6.51-1.839-6.483-6.008.027-4.152,2.679-5.87,6.536-5.886q16.473-.066,32.946,0c3.836.013,6.556,1.677,6.634,5.81s-2.63,5.9-6.421,6.079C-76.723-632.362-80.046-632.483-84.027-632.483Z" fill="#b68c5a"/>
  </g>
</svg>
