<?xml version="1.0" encoding="utf-8"?>
<!-- Generator: Adobe Illustrator 26.0.0, SVG Export Plug-In . SVG Version: 6.00 Build 0)  -->
<svg version="1.1" id="Layer_1" xmlns="http://www.w3.org/2000/svg" xmlns:xlink="http://www.w3.org/1999/xlink" x="0px" y="0px"
	 viewBox="0 0 147 147" style="enable-background:new 0 0 147 147;" xml:space="preserve">
<style type="text/css">
	.st0{fill:#FFFFFF;}
	.st1{fill:#929497;}
	.st2{fill:#EC1C24;}
	.st3{fill:#010101;}
	.st4{fill:#939598;}
	.st5{fill:#95979A;}
</style>
<g>
	<path class="st1" d="M2.9,126.9c1.1-0.4,2.2-1,3.2-1.6c4.6-2.5,8.9-5.5,12.6-9.3c4.2-4.3,7.3-9.1,9.2-14.8c1-3.2,1.6-6.4,2-9.8
		c0.3-2.6,0.4-5.3,0.5-7.9c0-1.2,0-2.5,0-3.7c0-14.8,0-29.6,0-44.3c0-2.5-0.3-5.1-0.8-7.6c-0.8-3.4-2.9-5.5-6.1-6.8
		c-0.8-0.3-1.6-0.6-2.4-0.7c-0.4-0.1-0.5-0.2-0.5-0.6c0-0.4,0-0.7,0-1.1c0.4,0,0.8,0,1.3,0c0.5,0.2,1,0.1,1.5,0.2
		c2.1,0.2,4.3,0.3,6.4,0.4c2,0.1,4.1,0.2,6.1,0.3c0.5,0,0.7,0.2,0.6,0.7c0,0.2,0,0.3,0,0.5c0,19.6,0,39.2,0,58.7
		c0,4.8-0.3,9.6-1,14.4c-0.5,3.6-1.2,7.3-2.4,10.7c-1.6,4.6-4.2,8.6-7.5,12.1c-3.9,4.2-8.5,7.3-13.8,9.4c-2.7,1-5.5,1.8-8.4,2.2
		c-0.2,0-0.3,0.1-0.5,0.1C2.9,127.9,2.9,127.4,2.9,126.9z"/>
	<path class="st2" d="M58.3,18.7c0,0.1,0,0.1,0,0.2c-0.1,0.4,0.2,0.9-0.1,1.2c-0.2,0.2-0.7,0.2-1.1,0.3c-2.1,0.5-4.1,1.3-5.7,2.9
		c-1.5,1.5-2.1,3.3-2.5,5.2c-0.4,1.9-0.6,3.9-0.6,5.8c0,15,0,29.9,0,44.9c0,3.7,0.1,7.4,0.8,11c0.6,3.1,1.7,6,4,8.4
		c-0.6,0-1.1,0.1-1.6,0.1c-2.9,0.2-5.7,0.6-8.1,2.4c-1.3,1-2.5,2.1-3.6,3.3c-0.7,0.7-1.3,1.4-2,2.1c0.6-1.3,1.2-2.6,1.7-3.9
		c1.2-3.2,1.9-6.4,2.2-9.8C41.9,87.9,42,82.9,42,78c0-19.2,0-38.4,0-57.6c0-0.8,0-0.8,0.8-0.8c4.3-0.1,8.6-0.4,12.9-0.7
		c0.4,0,0.9,0.1,1.3-0.2C57.4,18.7,57.9,18.7,58.3,18.7z"/>
	<path d="M67.2,18.7c1.5,0.4,2.6,1.3,3.5,2.5c0.2,0.3,0.2,0.4-0.1,0.6c-0.4,0.2-0.7,0.7-1.1,0.7c-0.4,0-0.6-0.6-0.9-0.9
		c-0.7-0.7-1.4-1.1-2.4-1.1c-1.9,0-3,1.8-2,3.5c0.3,0.5,0.7,0.9,1.2,1.3c1.2,0.9,2.4,1.8,3.5,2.8c1,0.9,1.8,1.9,2.1,3.2
		c0.6,2.5-1.2,5.1-3.8,5.6c-2.4,0.4-4.4-0.5-5.8-2.8c-0.5-0.8-0.5-0.8,0.3-1.3c0.7-0.4,0.7-0.4,1.2,0.3c0.4,0.6,0.8,1.1,1.3,1.5
		c1,0.7,2.1,0.9,3.2,0.4c1-0.4,1.7-1.2,1.8-2.4c0.1-0.8-0.2-1.5-0.6-2.1c-0.7-0.9-1.5-1.6-2.4-2.3c-0.9-0.7-1.9-1.4-2.7-2.2
		c-2.5-2.4-1.6-6.5,1.8-7.2c0,0,0.1-0.1,0.1-0.1C66,18.7,66.6,18.7,67.2,18.7z"/>
	<path d="M107,45.3c-0.9,1.8-1.8,3.6-2.7,5.4c-1,2.1-2.1,4.2-3.1,6.3c-0.1,0.2-0.1,0.5-0.5,0.5c-0.3,0-0.3-0.3-0.4-0.5
		c-1.9-3.9-3.8-7.7-5.8-11.6c0-0.1-0.1-0.1-0.1-0.2c-0.1,0-0.1,0.1-0.1,0.2c-0.5,3.8-1,7.6-1.5,11.3c-0.1,0.6-0.2,0.8-0.8,0.7
		c-1-0.1-1,0-0.8-1c0.7-5.3,1.5-10.5,2.3-15.8c0-0.1,0-0.3,0.1-0.4c0.1-0.3,0.2-0.3,0.4-0.1c0.1,0.2,0.2,0.4,0.3,0.6
		c2.2,4.4,4.4,8.9,6.6,13.3c0,0.1,0.1,0.1,0.1,0.2c1.1-2.2,2.1-4.3,3.2-6.4c1.2-2.5,2.4-5,3.7-7.4c0.1-0.1,0.1-0.4,0.3-0.3
		c0.2,0,0.2,0.2,0.2,0.4c0.8,5.5,1.6,11,2.4,16.6c0,0.3,0,0.5-0.4,0.5c-1.3,0-1.3,0-1.5-1.2c-0.5-3.7-1-7.3-1.5-11
		C107,45.4,107,45.4,107,45.3z"/>
	<path d="M114.8,61.4c-5.1,0-9.1,4.1-9.1,9.2c0,5.1,4,9,9.2,9c4.9,0.2,9.1-4,9.2-8.9C124.2,65.6,120.2,61.3,114.8,61.4z M114.9,77.9
		c-4,0-7.3-3.2-7.3-7.2c0-4.3,3.2-7.6,7.3-7.6c4.1,0,7.4,3.3,7.4,7.4C122.3,74.7,119.1,77.9,114.9,77.9z"/>
	<path d="M75.1,75.8c0.4-0.3,0.8-0.6,1.1-0.9c1.1-0.9,1.1-0.9,0-1.9c-0.2-0.2-0.3-0.2-0.5,0c-0.5,0.4-1,0.8-1.5,1.2
		c-0.3,0.3-0.5,0.2-0.7,0c-1.2-1.3-2.4-2.5-3.6-3.8c-0.3-0.3-0.3-0.4,0-0.7c0.9-0.7,1.7-1.5,2.2-2.5c0.9-1.6,0.3-3.4-1.3-4.2
		c-1.3-0.7-2.7-0.7-4.1-0.1c-1.9,0.8-2.5,2.6-1.5,4.4c0.4,0.7,0.8,1.3,1.4,1.9c0.4,0.4,0.3,0.6-0.1,1c-1.2,0.9-2.3,1.9-3,3.3
		c-1.3,2.5-0.2,5.4,2.4,6c1.1,0.3,2.2,0.2,3.3,0c1.7-0.4,3-1.3,4.3-2.3c0.3-0.2,0.4-0.2,0.6,0c0.5,0.6,1.1,1.2,1.7,1.8
		c0.1,0.1,0.2,0.3,0.5,0.3c0.7,0,1.5,0,2.3,0C77.3,77.9,76.2,76.9,75.1,75.8z M68.1,64.2c0.2,0,0.4,0,0.6,0c0.3,0,0.6,0,0.8,0.1
		c1.1,0.3,1.5,1.2,0.9,2.3c-0.5,0.8-1.1,1.4-1.8,2c-0.2,0.2-0.3,0-0.4-0.1c-0.4-0.5-0.9-1.1-1.2-1.7C66.1,65.5,66.6,64.4,68.1,64.2z
		 M72.3,75.7c-1.4,1-2.7,2.1-4.5,2.3c-0.1,0-0.2,0-0.3,0c-1.5,0-2.7-1-2.9-2.3c-0.1-0.8,0.3-1.5,0.8-2.1c0.7-0.9,1.7-1.7,2.6-2.4
		c0.2-0.2,0.3-0.1,0.4,0.1c1.2,1.4,2.6,2.7,3.9,4.1C72.4,75.5,72.5,75.6,72.3,75.7z"/>
	<path d="M87,70.5c0-4.8,3.4-8.5,8.1-9.1c3-0.3,5.7,0.3,8,2.4c0,0,0,0,0,0c1.1,1,1.1,1-0.1,2c-0.3,0.2-0.4,0.2-0.6-0.1
		c-2.4-2.8-6.4-3.5-9.7-1.7c-2.9,1.6-4.3,4.8-3.6,8.2c0.6,3,3.3,5.3,6.5,5.6c2.7,0.3,5-0.5,6.9-2.5c0.2-0.2,0.3-0.2,0.5,0
		c0.2,0.1,0.3,0.3,0.5,0.4c0.6,0.5,0.6,0.5,0.1,1.1c-1.8,1.8-3.9,2.7-6.4,2.8c-1.4,0.1-2.8,0-4.1-0.5c-3.4-1.1-5.7-4.3-5.9-7.9
		C87.1,71,87,70.7,87,70.5z"/>
	<path d="M129,56.9c-2.5-5.4-5.1-10.8-7.6-16.3c-0.1-0.2-0.1-0.5-0.5-0.5c-0.4,0-0.4,0.3-0.5,0.5c-2.1,4.5-4.3,9-6.4,13.5
		c-0.5,1.1-1,2.3-1.6,3.4c0.5,0,0.9,0,1.3,0c0.5,0.1,0.8-0.2,1-0.7c0.7-1.5,1.4-3,2.1-4.6c0.2-0.4,0.3-0.5,0.8-0.5
		c2.1,0,4.2,0,6.4,0c0.4,0,0.6,0.1,0.8,0.5c0.7,1.6,1.5,3.2,2.3,4.8c0.1,0.2,0.1,0.4,0.4,0.4c0.5,0,1.1,0,1.7,0
		C129.1,57.3,129,57.1,129,56.9z M118,50.1c1-2,1.9-4.1,2.9-6.2c1,2.1,1.9,4.1,2.9,6.2H118z"/>
	<path d="M88.6,56.9c-2.5-5.4-5-10.8-7.6-16.2c-0.1-0.2-0.1-0.6-0.5-0.6c-0.4,0-0.4,0.3-0.5,0.6c-2,4.1-3.9,8.3-5.9,12.4
		c-0.7,1.5-1.4,2.9-2.1,4.4c0.5,0,1,0,1.5,0c0.4,0,0.5-0.1,0.7-0.4c0.7-1.6,1.5-3.3,2.3-4.9c0.1-0.3,0.3-0.4,0.6-0.4
		c2.2,0,4.4,0,6.6,0c0.3,0,0.4,0.1,0.6,0.4c0.6,1.3,1.2,2.6,1.9,3.9c0.7,1.5,0.7,1.5,2.4,1.5c0.1,0,0.1,0,0.2,0
		C88.7,57.3,88.7,57.1,88.6,56.9z M77.6,50.1c1-2.1,1.9-4.1,2.9-6.2c1,2.1,1.9,4.1,2.9,6.2H77.6z"/>
	<path d="M100.2,36c-2.5-5.4-5.1-10.9-7.6-16.3c-0.1-0.2-0.1-0.5-0.5-0.5c-0.4,0-0.4,0.3-0.4,0.5c-2.1,4.4-4.2,8.7-6.2,13.1
		c-0.6,1.2-1.1,2.5-1.8,3.7c0.6,0,1.1,0,1.6,0c0.3,0,0.5-0.1,0.6-0.4c0.7-1.6,1.5-3.2,2.3-4.9c0.2-0.4,0.4-0.5,0.7-0.5
		c2.2,0,4.3,0,6.5,0c0.4,0,0.5,0.1,0.7,0.4c0.8,1.6,1.6,3.3,2.3,4.9c0.1,0.2,0.1,0.4,0.4,0.4c0.5,0,1.1,0,1.7,0
		C100.3,36.3,100.3,36.1,100.2,36z M89.2,29.1c1-2.1,1.9-4.1,2.9-6.2c1,2.1,2,4.1,2.9,6.2H89.2z"/>
	<path d="M68.5,47.1c0-2.1,0-4.3,0-6.4c0-0.4,0.1-0.5,0.5-0.5c1.2,0,1.2,0,1.2,1.2c0,3.7,0,7.4,0,11.1c0,0.7-0.1,1.5-0.2,2.2
		c-0.3,2.2-2.1,3.5-4.5,3.3c-1.4-0.1-2.6-0.8-3.6-1.6c-0.2-0.2-0.2-0.3-0.1-0.5c0.7-1.1,0.7-1.1,1.8-0.4c0.5,0.3,1,0.6,1.5,0.8
		c1.4,0.5,2.8-0.3,3.1-1.8c0.1-0.6,0.2-1.3,0.2-2C68.5,50.7,68.5,48.9,68.5,47.1z"/>
	<path d="M131.6,48.8c0-2.7,0-5.4,0-8.2c0-0.4,0.1-0.6,0.5-0.6c1.2,0,1.2,0,1.2,1.2c0,4.6,0,9.3,0,13.9c0,0.4,0.1,0.6,0.6,0.6
		c1.9,0,3.8,0,5.7,0c0.4,0,0.5,0.1,0.5,0.5c0,1.2,0,1.2-1.2,1.2c-2.2,0-4.4,0-6.6,0c-0.5,0-0.6-0.2-0.6-0.6
		C131.6,54.2,131.6,51.5,131.6,48.8z"/>
	<path class="st3" d="M142.3,48.9c0-2.7,0-5.4,0-8.1c0-0.4,0.1-0.6,0.6-0.6c1.2,0,1.2,0,1.2,1.2c0,5.2,0,10.4,0,15.6
		c0,0.5-0.1,0.6-0.6,0.6c-1.2,0-1.2,0-1.2-1.2C142.3,53.9,142.3,51.4,142.3,48.9z"/>
	<path class="st4" d="M75.4,95.7c0.1,0,0.2,0,0.3,0c1,0,1,0,0.8,1c-0.4,1.4-1.9,2.1-3.5,1.8c-1.5-0.3-2.6-1.7-2.4-3.1
		c0.2-1.7,1.4-2.8,3-2.8c0.9,0,1.6,0.2,2.3,0.7c0.1,0.1,0.5,0.2,0.3,0.5c-0.2,0.3-0.4,0.2-0.6,0C74.4,93,73,93.1,72,94
		c-0.7,0.7-1,1.5-0.6,2.5c0.3,0.9,1.1,1.5,2.1,1.6c1.2,0.1,2.1-0.4,2.4-1.3c0.1-0.3,0.1-0.5-0.3-0.5c-0.4,0-0.7,0-1.1,0
		c-0.2,0-0.3-0.1-0.3-0.3c0-0.2,0.1-0.3,0.3-0.3C74.8,95.7,75.1,95.7,75.4,95.7L75.4,95.7z"/>
	<path class="st4" d="M82.5,83.8c-1.7,0-3.1,1.3-3.1,3c0,1.7,1.4,3,3.1,2.9c1.7,0,2.9-1.3,2.9-3C85.4,85.2,84.1,83.9,82.5,83.8z
		 M82.3,89.2c-1.3,0-2.3-1.1-2.3-2.4c0-1.3,1-2.4,2.4-2.4c1.3,0,2.4,1,2.4,2.4C84.8,88.2,83.7,89.2,82.3,89.2z"/>
	<path class="st4" d="M117.9,88.9c-0.3-0.2-0.4-0.4,0-0.6c0.1-0.1,0.4-0.2,0.2-0.5c-0.2-0.3-0.4-0.1-0.6,0c-0.3,0.3-0.5,0.2-0.7-0.1
		c-0.1-0.1-0.2-0.2-0.3-0.3c-0.2-0.2-0.6-0.4-0.6-0.7c-0.1-0.3,0.4-0.5,0.6-0.7c0.5-0.7,0.3-1.5-0.4-1.7c-0.6-0.2-1.3,0-1.6,0.4
		c-0.4,0.5-0.1,1,0.2,1.4c0,0,0.1,0.1,0.1,0.1c0.2,0.2,0.2,0.4-0.1,0.5c-0.3,0.3-0.6,0.6-0.8,0.9c-0.5,1,0,2,1.1,2.1
		c0.7,0,1.3-0.2,1.9-0.6c0.3-0.2,0.5-0.2,0.6,0.1c0.3,0.4,0.7,0.5,1.1,0.4c0-0.1,0.1-0.1,0.1-0.2C118.4,89.3,118.2,89.1,117.9,88.9z
		 M114.8,85.3c0-0.4,0.3-0.5,0.7-0.5c0.3,0,0.6,0.1,0.6,0.5c0,0.4-0.3,0.7-0.7,0.9C115.3,86.2,114.8,85.5,114.8,85.3z M116.5,88.5
		c-0.2,0.4-0.7,0.6-1.1,0.7c-0.1,0-0.2,0-0.3,0c-0.8,0-1.1-0.7-0.7-1.3c0.1-0.1,0.1-0.2,0.2-0.2c0.6-0.7,0.7-0.7,1.3,0c0,0,0,0,0,0
		C116.1,88,116.7,88.2,116.5,88.5z"/>
	<path class="st4" d="M99.1,92.7c-1.7,0-3,1.2-3,2.9c0,1.7,1.3,3,3,3c1.7,0,3-1.2,3-2.9C102,93.9,100.8,92.7,99.1,92.7z M99,98
		c-1.3,0-2.3-1-2.3-2.4c0-1.4,1-2.4,2.4-2.4c1.3,0,2.4,1,2.4,2.4C101.4,97,100.4,98,99,98z"/>
	<path class="st4" d="M107.8,98.5c-1.2-1.4-2.4-2.8-3.7-4.2c-0.1,0.3-0.1,0.6-0.1,0.8c0,1,0,2,0,2.9c0,0.2,0,0.4-0.3,0.4
		c-0.3,0-0.3-0.1-0.3-0.3c0-1.8,0-3.5,0.1-5.3c1.2,1.4,2.4,2.8,3.7,4.3c0-1.3,0-2.5,0-3.7c0-0.1,0-0.3,0.1-0.4
		c0.1-0.1,0.2-0.1,0.4-0.1c0.2,0,0.2,0.1,0.2,0.3c0,1.8,0,3.5,0,5.3C107.9,98.4,107.8,98.4,107.8,98.5z"/>
	<path class="st4" d="M135.6,97.1c0-1.4,0-2.6,0-3.8c0-0.2-0.1-0.5,0.3-0.5c0.4,0,0.3,0.3,0.3,0.5c0,1.7,0,3.4-0.1,5.2
		c-1.2-1.4-2.4-2.7-3.7-4.2c0,1.4,0,2.6,0,3.8c0,0.2,0.1,0.4-0.3,0.5c-0.2,0-0.4,0-0.4-0.3c0-1.8,0-3.5,0-5.3c0.1,0,0.1-0.1,0.2-0.1
		C133,94.2,134.2,95.6,135.6,97.1z"/>
	<path class="st4" d="M71.2,84.1C70.5,84,69.8,84,69.1,84c-0.4,0-0.5,0.1-0.5,0.5c0,0.8,0,1.5,0,2.3c0,0.8,0,1.7,0,2.5
		c0,0.3,0.1,0.4,0.4,0.4c0.6,0,1.2,0,1.9,0c1.5-0.1,2.4-1,2.5-2.4C73.4,85.5,72.7,84.4,71.2,84.1z M72.6,87.8
		c-0.3,0.7-0.8,1.1-1.6,1.3c-1.8,0.3-1.8,0.3-1.8-1.5v-0.7c0-0.6,0-1.2,0-1.8c0-0.2-0.1-0.3,0.2-0.4c0.8-0.3,2.3,0.1,2.9,0.8
		C72.8,86.1,72.9,86.9,72.6,87.8z"/>
	<path class="st4" d="M92.7,92.7c0.9,0,1.6,0.2,2.2,0.9c0.1,0.1,0.3,0.2,0.1,0.5c-0.2,0.2-0.3,0.1-0.5,0c-1.3-1.2-3.2-0.9-4,0.6
		c-0.5,1-0.2,2.2,0.6,2.9c0.9,0.7,2.3,0.7,3.2,0c0.1-0.1,0.2-0.1,0.3-0.2c0.2-0.2,0.3-0.1,0.5,0c0.2,0.2,0.1,0.3-0.1,0.4
		c-1,0.9-2.1,1-3.3,0.7c-1.1-0.3-1.7-1.2-1.9-2.4C89.4,94.2,91,92.5,92.7,92.7z"/>
	<path class="st4" d="M89.5,89.8c-1.8,0-3.1-1.3-3-3.1c0.1-1.8,1.5-3,3.3-2.8c0.8,0.1,1.4,0.3,2,0.9c0.1,0.1,0.4,0.2,0.1,0.5
		c-0.2,0.2-0.3,0.1-0.5-0.1c-0.8-0.8-2-0.9-2.9-0.4c-1.2,0.6-1.7,2.2-0.9,3.4c0.7,1.2,2.4,1.5,3.6,0.7c0.1-0.1,0.2-0.2,0.3-0.3
		c0.2-0.2,0.3,0,0.5,0.1c0.2,0.2,0,0.3-0.1,0.4C91.3,89.5,90.4,89.8,89.5,89.8z"/>
	<path class="st4" d="M98.1,89.5c0-0.1-0.1-0.2-0.1-0.3c-0.3-0.6-0.5-1.1-0.8-1.7c-0.5-1-1-2.1-1.5-3.1c-0.1-0.3-0.3-0.4-0.4,0
		c-0.8,1.7-1.6,3.4-2.4,5.1c-0.1,0.2,0,0.3,0.2,0.3c0.3,0,0.4-0.1,0.5-0.3c0.3-1.4,1.2-1.8,2.6-1.5c0.1,0,0.1,0,0.2,0
		c0.3-0.1,0.5,0.1,0.6,0.4c0.2,0.4,0.4,0.8,0.6,1.2c0.1,0.2,0.3,0.2,0.5,0.2C98,89.7,98.1,89.6,98.1,89.5z M96,87.3
		c-0.4,0-0.8,0-1.1,0c-0.2,0-0.3-0.1-0.2-0.3c0.2-0.5,0.5-1.1,0.8-1.7c0.3,0.6,0.5,1.2,0.8,1.7C96.4,87.2,96.3,87.3,96,87.3z"/>
	<path class="st4" d="M67.3,89.1c-0.7-1.6-1.4-3.1-2.2-4.7C65,84.3,65,84.1,64.8,84c-0.2,0-0.2,0.3-0.3,0.4
		c-0.7,1.6-1.5,3.1-2.2,4.7c-0.1,0.1-0.3,0.3,0,0.5c0.2,0.1,0.5,0,0.6-0.3c0.1-0.3,0.3-0.5,0.4-0.8c0.2-0.6,0.6-0.8,1.2-0.8
		c1.2-0.1,1.9,0.2,2.2,1.4c0.1,0.4,0.4,0.6,0.8,0.4C67.5,89.4,67.3,89.3,67.3,89.1z M65.4,87.3c-0.5,0-0.9,0-1.4,0
		c0.1-0.6,0.6-1.5,0.9-1.9c0.2,0.5,0.5,1,0.7,1.6C65.7,87.2,65.7,87.3,65.4,87.3z"/>
	<path class="st4" d="M80.1,93c-0.1-0.3-0.3-0.2-0.4,0c-0.8,1.8-1.7,3.6-2.5,5.4c0.5,0.2,0.7,0,0.9-0.4c0.1-0.2,0.2-0.4,0.3-0.6
		c0.2-0.6,0.6-0.7,1.2-0.8c1.2-0.1,1.9,0.3,2.2,1.4c0.1,0.4,0.4,0.5,0.8,0.4C81.7,96.6,80.9,94.8,80.1,93z M79.3,96.1
		c-0.3,0-0.3-0.1-0.2-0.3c0.3-0.5,0.5-1,0.8-1.7c0.3,0.7,0.6,1.3,0.9,2C80.3,96.1,79.8,96.1,79.3,96.1z"/>
	<path class="st4" d="M128.1,93.1c0-0.1-0.1-0.2-0.2-0.3c-0.2,0-0.2,0.2-0.2,0.3c-0.5,1-0.9,2-1.4,2.9c-0.4,0.8-0.7,1.6-1.1,2.4
		c0.5,0.2,0.7,0,0.9-0.4c0.1-0.2,0.2-0.4,0.3-0.6c0.2-0.6,0.6-0.7,1.2-0.8c1.2-0.1,1.9,0.2,2.2,1.4c0.1,0.4,0.3,0.6,0.8,0.4
		C129.8,96.6,129,94.9,128.1,93.1z M127,96c0.3-0.6,0.6-1.2,0.9-2c0.3,0.7,0.6,1.3,0.9,2H127z"/>
	<path class="st1" d="M66.4,95.6c0-0.8,0-1.6,0-2.4c0-0.3,0-0.4,0.4-0.4c0.8,0,1.7,0,2.5,0c0.2,0,0.4,0,0.4,0.3
		c0,0.3-0.2,0.3-0.3,0.3c-0.6,0-1.3,0-1.9,0c-0.3,0-0.4,0.1-0.4,0.4c0,1.3,0,1.3,1.3,1.3c0.3,0,0.7,0,1,0c0.2,0,0.4,0,0.4,0.3
		c0,0.4-0.3,0.3-0.4,0.3c-0.6,0-1.2,0-1.8,0c-0.3,0-0.4,0.1-0.4,0.4c0,0.4,0,0.9,0,1.3c0,0.3,0.1,0.5,0.4,0.5c0.6,0,1.2,0,1.9,0
		c0.2,0,0.4,0,0.4,0.3s-0.2,0.3-0.4,0.3c-0.8,0-1.7,0-2.5,0c-0.3,0-0.4-0.1-0.4-0.4c0,0,0,0,0-0.1C66.4,97.2,66.4,96.4,66.4,95.6z"
		/>
	<path class="st4" d="M104.1,84c0.4,0,0.8,0,1.3,0c0.2,0,0.3,0,0.3,0.3c0,0.3-0.1,0.3-0.4,0.3c-0.6,0-1.3,0-1.9,0
		c-0.3,0-0.4,0.1-0.4,0.4c-0.1,1.3-0.1,1.3,1.2,1.3c0.3,0,0.6,0,0.9,0c0.2,0,0.5-0.1,0.5,0.3c0,0.3-0.3,0.3-0.5,0.3
		c-0.6,0-1.2,0-1.8,0c-0.3,0-0.4,0.1-0.4,0.4c-0.1,1.8-0.1,1.8,1.7,1.8c0.2,0,0.4,0,0.6,0c0.2,0,0.3,0.1,0.3,0.3
		c0,0.2-0.1,0.3-0.3,0.3c-0.9,0-1.8,0-2.7,0c-0.2,0-0.3-0.1-0.3-0.3c0-1.7,0-3.3,0-5c0-0.3,0.1-0.3,0.4-0.3
		C103.3,84,103.7,84,104.1,84z"/>
	<path class="st4" d="M113.6,95.1c0-0.7,0-1.3,0-1.9c0-0.2,0-0.4,0.3-0.4c0.3,0,0.3,0.2,0.3,0.4c0,1.2-0.1,2.5,0.1,3.7
		c0.1,0.7,0.5,1.1,1.3,1.1c0.6,0,1.1-0.4,1.2-1.1c0.2-1.2,0-2.4,0.1-3.6c0-0.2-0.1-0.5,0.3-0.5c0.4,0,0.3,0.3,0.3,0.5
		c0,1.3,0.1,2.6-0.1,3.9c-0.2,0.9-0.8,1.5-1.8,1.5c-1,0-1.7-0.5-1.8-1.5C113.5,96.4,113.6,95.7,113.6,95.1z"/>
	<path class="st4" d="M108.2,89.8c-0.8,0-1.3-0.4-1.7-1c-0.1-0.2-0.1-0.3,0.1-0.4c0.1-0.1,0.3-0.2,0.4,0c0.2,0.3,0.3,0.5,0.6,0.6
		c0.5,0.2,0.9,0.1,1.2-0.3c0.3-0.4,0.3-0.8,0-1.2c-0.4-0.5-1-0.9-1.5-1.3c-0.5-0.4-0.7-0.9-0.6-1.5c0.1-0.6,0.5-0.9,1.1-1
		c0.5-0.1,1.2,0.2,1.6,0.7c0.1,0.1,0.2,0.2,0,0.4c-0.1,0.1-0.3,0.2-0.4,0.1c-0.1-0.1-0.2-0.2-0.3-0.3c-0.4-0.3-0.9-0.3-1.2,0
		c-0.3,0.4-0.2,0.8,0.1,1.1c0.3,0.3,0.6,0.5,0.9,0.7c0.3,0.2,0.5,0.4,0.8,0.7c0.4,0.5,0.6,1.1,0.3,1.7
		C109.3,89.5,108.8,89.8,108.2,89.8z"/>
	<path class="st4" d="M110.7,92.7c0.5-0.1,0.9,0.3,1.3,0.7c0.1,0.2,0.2,0.3,0,0.4c-0.2,0.1-0.3,0.2-0.5,0c0,0-0.1-0.1-0.1-0.1
		c-0.4-0.4-1-0.5-1.3-0.1c-0.4,0.4-0.3,0.8,0.2,1.3c0.4,0.3,0.9,0.7,1.2,1c0.5,0.5,0.8,1,0.6,1.8c-0.2,0.6-0.6,1-1.2,1.1
		c-0.8,0.1-1.4-0.2-1.8-0.8c-0.1-0.1-0.4-0.3,0-0.5c0.2-0.2,0.4-0.1,0.5,0.1c0.2,0.3,0.5,0.6,0.9,0.6c0.4,0,0.7-0.2,0.9-0.5
		c0.2-0.4,0.1-0.7-0.1-1c-0.4-0.5-0.9-0.8-1.3-1.2c-0.6-0.5-0.9-1.1-0.7-1.7C109.5,93,110,92.7,110.7,92.7z"/>
	<path class="st4" d="M142.6,92.7c0.5,0,0.9,0.2,1.2,0.6c0.1,0.2,0.2,0.3,0,0.5c-0.2,0.2-0.3,0.1-0.5-0.1c-0.1-0.1-0.2-0.2-0.4-0.3
		c-0.4-0.2-0.7-0.2-1,0.1c-0.3,0.3-0.2,0.7,0,1c0.3,0.3,0.6,0.5,1,0.8c0.6,0.5,1.2,1,1.1,1.9c-0.1,0.7-0.7,1.3-1.4,1.3
		c-0.8,0.1-1.7-0.4-1.9-1c-0.1-0.2,0-0.3,0.1-0.3c0.1-0.1,0.3-0.2,0.4,0c0.1,0.2,0.3,0.4,0.5,0.6c0.4,0.3,1,0.2,1.3-0.1
		c0.4-0.4,0.3-0.8,0-1.2c-0.3-0.4-0.6-0.6-1-0.9c-0.3-0.2-0.5-0.4-0.7-0.6c-0.4-0.4-0.5-1-0.3-1.5C141.5,92.9,142,92.7,142.6,92.7z"
		/>
	<path class="st3" d="M77.3,35.4c0,0.8-0.6,1.5-1.5,1.5c-0.8,0-1.5-0.6-1.5-1.5c0-0.8,0.6-1.5,1.5-1.5
		C76.6,33.9,77.3,34.5,77.3,35.4z"/>
	<path d="M106.2,35.4c0,0.8-0.6,1.5-1.4,1.5c-0.8,0-1.5-0.6-1.5-1.5c0-0.8,0.6-1.5,1.5-1.5C105.6,33.9,106.2,34.5,106.2,35.4z"/>
	<path d="M126.3,78c0-0.8,0.7-1.4,1.5-1.4c0.8,0,1.5,0.7,1.4,1.5c0,0.8-0.7,1.4-1.5,1.4C126.9,79.5,126.3,78.8,126.3,78z"/>
	<path class="st4" d="M76.3,89.7c-0.6-1.5-1.3-3-1.9-4.4c-0.1-0.2-0.2-0.4-0.2-0.6c-0.1-0.2-0.4-0.4-0.1-0.6
		c0.3-0.2,0.5,0.1,0.7,0.4c0.4,1,0.9,2.1,1.3,3.1c0.1,0.2,0.2,0.4,0.3,0.7c0.2-0.5,0.4-0.8,0.5-1.2c0.4-0.9,0.8-1.7,1.1-2.6
		c0.2-0.4,0.4-0.5,0.8-0.4c-0.8,1.9-1.6,3.7-2.4,5.6C76.4,89.7,76.3,89.7,76.3,89.7z"/>
	<path class="st5" d="M83.6,95.6c0-0.8,0-1.6,0-2.4c0-0.2,0-0.4,0.3-0.4c0.3,0,0.3,0.2,0.3,0.4c0,1.4,0,2.7,0,4.1
		c0,0.4,0.1,0.6,0.6,0.6c0.4,0,0.8,0,1.1,0c0.2,0,0.4,0,0.4,0.3c0,0.3-0.2,0.3-0.4,0.3c-0.7,0-1.3,0-2,0c-0.3,0-0.4-0.1-0.4-0.4
		C83.6,97.3,83.6,96.4,83.6,95.6z"/>
	<path class="st1" d="M123.2,95.9c0-0.7,0-1.3,0-2c0-0.4-0.1-0.5-0.5-0.5c-0.3,0-0.8,0.3-0.8-0.3c0-0.6,0.5-0.3,0.8-0.3
		c0.6-0.1,1.3,0,1.9,0c0.2,0,0.4,0,0.4,0.3c0,0.3-0.2,0.3-0.4,0.3c-0.9,0-0.9,0-0.9,0.9c0,1.2,0,2.4,0,3.6c0,0.2,0.2,0.5-0.3,0.6
		c-0.5,0-0.3-0.4-0.3-0.6C123.2,97.2,123.2,96.6,123.2,95.9z"/>
	<path class="st4" d="M99.6,87.1c0-0.7,0-1.3,0-2c0-0.4-0.1-0.6-0.6-0.5c-0.1,0-0.3,0-0.4,0c-0.2,0-0.3-0.1-0.3-0.3
		c0-0.2,0.1-0.3,0.3-0.3c0.8,0,1.7,0,2.5,0c0.2,0,0.3,0.1,0.3,0.3c0,0.2-0.1,0.3-0.3,0.3c-0.3,0-0.8-0.2-0.9,0.1
		c-0.2,0.3-0.1,0.7-0.1,1.1c0,1.1,0,2.3,0,3.5c0,0.2,0.1,0.4-0.3,0.5c-0.4,0-0.3-0.2-0.3-0.5C99.6,88.5,99.6,87.8,99.6,87.1z"/>
	<path class="st1" d="M138.4,95.9c0-0.7,0-1.3,0-2c0-0.4-0.1-0.5-0.5-0.5c-0.2,0-0.3,0-0.5,0c-0.2,0-0.3-0.1-0.2-0.3
		c0-0.1,0-0.3,0.2-0.3c0.9,0,1.8,0,2.7,0c0.2,0,0.2,0.1,0.2,0.3c0,0.1,0,0.3-0.2,0.3c0,0-0.1,0-0.1,0c-0.9,0.1-0.9,0.1-0.9,1
		c0,1.2,0,2.4,0,3.6c0,0.2,0.1,0.5-0.3,0.5c-0.4,0-0.3-0.3-0.3-0.5C138.4,97.3,138.4,96.6,138.4,95.9z"/>
	<path class="st1" d="M63.1,95.3c0,0.7,0,1.4,0,2.1c0,0.3,0.1,0.4,0.4,0.4c0.5,0,1,0,1.5,0c0.2,0,0.3,0.1,0.3,0.3s-0.1,0.3-0.3,0.3
		c-0.7,0-1.4,0-2.1,0c-0.3,0-0.3-0.1-0.3-0.4c0-1.7,0-3.3,0-5c0-0.2,0.1-0.4,0.3-0.3c0.3,0,0.3,0.1,0.3,0.3
		C63.1,93.9,63.1,94.6,63.1,95.3z"/>
	<path class="st1" d="M119.6,95.3c0,0.7,0,1.5,0,2.2c0,0.3,0.1,0.4,0.4,0.4c0.5,0,1,0,1.5,0c0.2,0,0.4,0,0.4,0.3
		c0,0.3-0.2,0.3-0.4,0.3c-0.7,0-1.3,0-2,0c-0.3,0-0.4-0.1-0.4-0.4c0-1.6,0-3.2,0-4.9c0-0.2,0-0.4,0.3-0.4c0.3,0,0.3,0.2,0.3,0.4
		C119.6,93.9,119.6,94.6,119.6,95.3z"/>
</g>
</svg>
