<?xml version="1.0" encoding="utf-8"?>
<!-- Generator: Adobe Illustrator 26.0.0, SVG Export Plug-In . SVG Version: 6.00 Build 0)  -->
<svg version="1.1" id="Layer_1" xmlns="http://www.w3.org/2000/svg" xmlns:xlink="http://www.w3.org/1999/xlink" x="0px" y="0px"
	 viewBox="0 0 130 130" style="enable-background:new 0 0 130 130;" xml:space="preserve">
<style type="text/css">
	.st0{fill:#FFFFFF;}
	.st1{fill:#EC1C24;}
	.st2{fill:#929497;}
	.st3{fill:#010101;}
	.st4{fill:#939598;}
	.st5{fill:#95979A;}
</style>
<g>
	<g>
		<path class="st0" d="M6.9,109.1c0.9-0.3,1.8-0.9,2.6-1.4c3.8-2,7.3-4.5,10.3-7.7c3.4-3.5,6.1-7.5,7.6-12.2c0.9-2.6,1.4-5.3,1.6-8
			c0.3-2.1,0.3-4.3,0.4-6.5c0-1,0-2,0-3.1c0-12.2,0-24.3,0-36.5c0-2.1-0.2-4.2-0.7-6.2c-0.7-2.8-2.4-4.5-5-5.6
			c-0.7-0.3-1.3-0.4-2-0.6c-0.3-0.1-0.4-0.2-0.4-0.5c0-0.3,0-0.6,0-0.9c0.3,0,0.7,0,1,0c0.4,0.2,0.9,0.1,1.3,0.2
			c1.8,0.2,3.5,0.3,5.3,0.3c1.7,0.1,3.3,0.2,5,0.3c0.3,0,0.6,0.2,0.5,0.5c0,0.2,0,0.3,0,0.3c0,16.1,0,32.2,0,48.3
			c0,3.9-0.3,7.9-0.8,11.8c-0.4,3-1,6-2,8.9c-1.3,3.8-3.4,7.1-6.1,10c-3.2,3.4-7,6.1-11.4,7.8c-2.2,0.9-4.5,1.4-6.9,1.8
			c-0.2,0-0.3,0.1-0.4,0.1C6.9,109.8,6.9,109.4,6.9,109.1z"/>
		<path class="st1" d="M52.5,20c0,0.1,0,0.1,0,0.2c-0.1,0.3,0.2,0.8-0.1,0.9c-0.2,0.2-0.6,0.2-0.9,0.3c-1.8,0.4-3.4,1-4.7,2.4
			c-1.2,1.2-1.7,2.7-2,4.3c-0.3,1.6-0.5,3.2-0.5,4.8c0,12.4,0,24.6,0,36.9c0,3,0.1,6.1,0.7,9c0.5,2.6,1.4,4.9,3.2,6.9
			c-0.5,0-0.9,0.1-1.4,0.1c-2.4,0.2-4.7,0.5-6.6,2c-1.1,0.9-2,1.8-3,2.7c-0.6,0.6-1.1,1.2-1.6,1.8c0.5-1,1-2.1,1.4-3.2
			c1-2.6,1.5-5.3,1.8-8.1c0.3-4,0.4-8.1,0.4-12.2c0-15.8,0-31.5,0-47.4c0-0.7,0-0.7,0.7-0.7c3.6-0.1,7.1-0.3,10.7-0.6
			c0.3,0,0.7,0.1,1-0.2C51.8,20,52.2,20,52.5,20z"/>
	</g>
	<g>
		<path class="st0" d="M59.8,29c1.3,0.3,2.1,1.1,2.9,2c0.2,0.3,0.2,0.3-0.1,0.5c-0.3,0.2-0.6,0.6-0.9,0.6c-0.3,0-0.5-0.5-0.7-0.8
			c-0.5-0.6-1.1-0.9-2-0.9c-1.6,0-2.5,1.4-1.7,2.9c0.3,0.4,0.6,0.8,1,1.1c0.9,0.8,2,1.4,2.9,2.3c0.8,0.8,1.4,1.5,1.7,2.6
			c0.5,2-0.9,4.2-3.1,4.6c-2,0.3-3.6-0.4-4.8-2.3c-0.4-0.7-0.4-0.7,0.3-1c0.6-0.3,0.6-0.3,0.9,0.3c0.3,0.4,0.7,0.9,1.1,1.2
			c0.9,0.6,1.7,0.7,2.6,0.3c0.9-0.3,1.4-1,1.4-2c0.1-0.7-0.2-1.2-0.5-1.7c-0.5-0.8-1.3-1.3-2-1.9c-0.8-0.6-1.5-1.2-2.2-1.8
			c-2-2-1.3-5.3,1.4-5.9l0.1-0.1C58.9,29,59.4,29,59.8,29z"/>
		<path class="st0" d="M92.6,50.9c-0.8,1.4-1.4,3-2.2,4.4c-0.9,1.7-1.7,3.5-2.6,5.2c-0.1,0.2-0.1,0.4-0.4,0.3
			c-0.3,0-0.3-0.3-0.3-0.4c-1.6-3.2-3.2-6.4-4.8-9.5c0-0.1-0.1-0.1-0.1-0.2c-0.1,0-0.1,0.1-0.1,0.2c-0.4,3.1-0.9,6.2-1.3,9.3
			c-0.1,0.5-0.2,0.6-0.7,0.6c-0.9-0.1-0.9,0-0.7-0.9c0.6-4.3,1.2-8.6,1.9-13c0-0.1,0-0.3,0.1-0.3c0.1-0.3,0.2-0.3,0.3-0.1
			c0.1,0.2,0.2,0.3,0.3,0.4c1.8,3.7,3.6,7.3,5.5,10.9c0,0.1,0.1,0.1,0.1,0.2c0.9-1.8,1.7-3.5,2.6-5.3c1-2,2-4.1,3-6.1
			c0.1-0.1,0.1-0.3,0.3-0.3c0.2,0,0.2,0.2,0.2,0.3c0.7,4.5,1.3,9.1,2,13.6c0,0.3,0,0.3-0.3,0.3c-1.1,0-1,0-1.2-0.9
			c-0.4-3-0.9-6.1-1.3-9C92.6,50.9,92.6,50.9,92.6,50.9z"/>
		<path class="st0" d="M99.1,64.1c-4.2,0-7.5,3.3-7.5,7.6c0,4.2,3.3,7.4,7.6,7.4c4.1,0.2,7.5-3.3,7.6-7.3
			C106.7,67.6,103.5,64.1,99.1,64.1z M99.1,77.8c-3.3,0-6.1-2.6-6.1-6c0-3.5,2.6-6.2,6.1-6.2c3.3,0,6.1,2.7,6.1,6.1
			C105.1,75.1,102.6,77.8,99.1,77.8z"/>
		<path class="st0" d="M66.3,76c0.3-0.3,0.6-0.5,0.9-0.7c0.9-0.8,0.9-0.8,0-1.5c-0.2-0.2-0.3-0.2-0.4,0c-0.4,0.3-0.9,0.7-1.3,1
			c-0.3,0.2-0.4,0.2-0.6,0c-1-1-2-2.1-3-3.2c-0.3-0.3-0.3-0.3,0-0.6c0.7-0.6,1.4-1.3,1.9-2c0.7-1.4,0.3-2.7-1.1-3.5
			c-1.1-0.6-2.2-0.6-3.3-0.1c-1.5,0.7-2,2.1-1.3,3.6c0.3,0.6,0.7,1.1,1.1,1.6c0.3,0.3,0.3,0.5-0.1,0.9c-0.9,0.8-1.9,1.6-2.5,2.7
			c-1.1,2-0.2,4.4,2,4.9c0.9,0.3,1.8,0.2,2.6,0c1.4-0.3,2.5-1.1,3.5-2c0.3-0.2,0.3-0.2,0.5,0c0.4,0.5,0.9,0.9,1.4,1.4
			c0.1,0.1,0.2,0.3,0.3,0.3c0.6,0,1.2,0,1.9,0C68.2,77.7,67.3,76.8,66.3,76z M60.5,66.4c0.2,0,0.3,0,0.5,0c0.3,0,0.5,0,0.7,0.1
			c0.9,0.3,1.3,1,0.8,1.9c-0.3,0.7-0.9,1.1-1.5,1.6c-0.2,0.2-0.3,0-0.3-0.1c-0.3-0.4-0.7-0.9-1-1.4C59,67.5,59.4,66.6,60.5,66.4z
			 M64,75.9c-1.1,0.9-2.2,1.7-3.7,1.9c-0.1,0-0.2,0-0.3,0c-1.2,0-2.2-0.9-2.4-1.9c-0.1-0.7,0.3-1.3,0.6-1.7c0.6-0.8,1.4-1.4,2.1-2
			c0.2-0.2,0.3-0.1,0.3,0.1c1,1.2,2.1,2.2,3.2,3.3C64.1,75.7,64.2,75.8,64,75.9z"/>
		<path class="st0" d="M76.2,71.6c0-3.9,2.7-7,6.6-7.4c2.5-0.3,4.7,0.3,6.6,2l0,0c0.9,0.9,0.9,0.9-0.1,1.6C89.2,68,89,68,88.8,67.7
			c-2-2.3-5.3-2.9-8-1.4c-2.4,1.3-3.6,4-3,6.7c0.5,2.5,2.7,4.3,5.3,4.6c2.2,0.3,4.1-0.4,5.6-2.1c0.2-0.2,0.3-0.2,0.4,0
			c0.2,0.1,0.3,0.2,0.4,0.3c0.5,0.4,0.5,0.4,0.1,0.9c-1.4,1.5-3.2,2.2-5.3,2.3c-1.1,0.1-2.3,0-3.4-0.4c-2.8-0.9-4.7-3.5-4.9-6.5
			C76.2,72,76.2,71.8,76.2,71.6z"/>
		<path class="st0" d="M110.7,60.5c-2-4.4-4.2-9-6.2-13.4c-0.1-0.2-0.1-0.4-0.3-0.4c-0.3,0-0.3,0.3-0.3,0.4
			c-1.8,3.7-3.5,7.4-5.3,11.1C98,59.1,97.6,60,97.1,61c0.4,0,0.8,0,1,0c0.4,0.1,0.7-0.2,0.9-0.5c0.6-1.3,1.2-2.5,1.8-3.8
			c0.2-0.3,0.3-0.4,0.6-0.4c1.8,0,3.5,0,5.2,0c0.3,0,0.5,0.1,0.7,0.4c0.6,1.4,1.3,2.6,1.9,3.9c0.1,0.2,0.1,0.3,0.3,0.3
			c0.4,0,0.9,0,1.4,0C110.8,60.8,110.7,60.6,110.7,60.5z M101.6,54.8c0.8-1.7,1.6-3.3,2.4-5.1c0.9,1.8,1.6,3.4,2.4,5.1H101.6z"/>
		<path class="st0" d="M77.5,60.5c-2-4.4-4.2-8.9-6.2-13.3c-0.1-0.2-0.1-0.4-0.4-0.5c-0.3,0-0.3,0.3-0.4,0.4
			c-1.6,3.4-3.2,6.8-4.9,10.2c-0.6,1.2-1.1,2.4-1.7,3.7c0.4,0,0.9,0,1.3,0c0.3,0,0.4-0.1,0.6-0.3c0.6-1.4,1.3-2.6,1.9-4
			c0.1-0.3,0.3-0.3,0.5-0.3c1.8,0,3.7,0,5.5,0c0.3,0,0.3,0.1,0.5,0.3c0.5,1.1,1,2.1,1.5,3.2c0.6,1.3,0.6,1.3,2,1.2
			c0.1,0,0.1,0,0.2,0C77.6,60.8,77.5,60.6,77.5,60.5z M68.4,54.8c0.8-1.7,1.6-3.4,2.4-5.1c0.9,1.7,1.6,3.4,2.4,5.1H68.4z"/>
		<path class="st0" d="M87,43.2c-2.1-4.5-4.2-9-6.3-13.5c-0.1-0.2-0.1-0.4-0.4-0.4c-0.3,0-0.3,0.3-0.3,0.4
			c-1.7,3.6-3.4,7.2-5.1,10.8c-0.5,1-0.9,2-1.4,3.1c0.5,0,0.9,0,1.3,0c0.3,0,0.3-0.1,0.5-0.3c0.6-1.4,1.3-2.6,1.9-4
			c0.2-0.3,0.3-0.3,0.6-0.3c1.8,0,3.6,0,5.3,0c0.3,0,0.4,0.1,0.6,0.3c0.6,1.4,1.3,2.6,1.9,4c0.1,0.2,0.1,0.3,0.3,0.3
			c0.4,0,0.9,0,1.4,0C87.1,43.5,87,43.3,87,43.2z M77.9,37.5c0.8-1.7,1.6-3.3,2.4-5.1c0.9,1.7,1.6,3.4,2.4,5.1H77.9z"/>
		<path class="st0" d="M61,52.4c0-1.8,0-3.5,0-5.3c0-0.3,0.1-0.4,0.4-0.4c1,0,1,0,1,1c0,3.1,0,6.1,0,9.2c0,0.6-0.1,1.2-0.2,1.8
			c-0.2,1.8-1.7,2.9-3.8,2.7c-1.1-0.1-2.1-0.6-3-1.4c-0.2-0.2-0.2-0.3-0.1-0.4c0.6-0.9,0.6-0.9,1.4-0.3c0.4,0.3,0.9,0.5,1.3,0.6
			c1.2,0.4,2.3-0.3,2.6-1.4c0.1-0.5,0.2-1,0.2-1.6C61,55.3,61,53.8,61,52.4z"/>
		<path class="st0" d="M112.9,53.8c0-2.2,0-4.4,0-6.7c0-0.3,0.1-0.4,0.4-0.4c1,0,1,0,1,1c0,3.8,0,7.7,0,11.4c0,0.3,0.1,0.5,0.4,0.4
			c1.5,0,3.1,0,4.7,0c0.3,0,0.4,0.1,0.4,0.4c0,1,0,1-1,1c-1.8,0-3.7,0-5.5,0c-0.4,0-0.5-0.2-0.5-0.5C112.9,58.2,112.9,56,112.9,53.8
			z"/>
		<path class="st0" d="M121.6,53.8c0-2.2,0-4.4,0-6.7c0-0.3,0.1-0.5,0.4-0.5c1,0,1,0,1,1c0,4.3,0,8.5,0,12.8c0,0.3-0.1,0.5-0.5,0.5
			c-1,0-1,0-1-1C121.6,57.9,121.6,55.8,121.6,53.8z"/>
		<path class="st0" d="M68.1,42.7c0,0.7-0.5,1.2-1.2,1.2c-0.7,0-1.2-0.5-1.2-1.2s0.5-1.2,1.2-1.2C67.6,41.5,68.1,42,68.1,42.7z"/>
		<path class="st0" d="M92,42.7c0,0.7-0.5,1.2-1.2,1.2c-0.7,0-1.2-0.5-1.2-1.3c0-0.7,0.5-1.2,1.2-1.2C91.5,41.5,92,42,92,42.7z"/>
		<path class="st0" d="M108.4,77.8c0-0.7,0.6-1.2,1.3-1.2c0.7,0,1.2,0.6,1.2,1.3c0,0.7-0.6,1.2-1.3,1.2
			C108.9,79,108.4,78.4,108.4,77.8z"/>
	</g>
</g>
</svg>
